<?xml version="1.0" standalone="no"?>
<!DOCTYPE svg PUBLIC "-//W3C//DTD SVG 1.1//EN" "http://www.w3.org/Graphics/SVG/1.1/DTD/svg11.dtd" >
<svg>
<metadata>
Created by FontForge 20090914 at Fri Feb 24 04:40:44 2012
 By root
19-4-97    9-1-2004  Copyright  M KLEIN
</metadata>
<defs>
<font id="Ubahn" horiz-adv-x="0" >
  <font-face 
    font-family="Ubahn"
    font-weight="500"
    font-stretch="normal"
    units-per-em="1000"
    panose-1="2 0 6 6 3 0 0 2 0 3"
    ascent="800"
    descent="-200"
    x-height="419"
    cap-height="624"
    bbox="-53 -270 1245 777"
    underline-thickness="20"
    underline-position="-123"
    unicode-range="U+0005-U+E002"
  />
<missing-glyph horiz-adv-x="214" 
 />
    <glyph glyph-name=".notdef" horiz-adv-x="214" 
 />
    <glyph glyph-name="breve" 
 />
    <glyph glyph-name="dotaccent" 
 />
    <glyph glyph-name="ring" 
 />
    <glyph glyph-name="hungarumlaut" unicode="&#xa;" 
 />
    <glyph glyph-name="ogonek" 
 />
    <glyph glyph-name="caron" horiz-adv-x="730" 
d="M568 156q26 41 37 77.5t11 73.5q0 52 -19.5 99t-53 81.5t-78.5 55t-96 20.5t-97 -20.5t-80.5 -55.5t-55 -81.5t-20.5 -99.5t20 -100t53.5 -82t79 -55.5t96.5 -20.5q31 0 64.5 10.5t74.5 35.5l-61 51l53 70zM365 649q73 0 136.5 -27.5t110 -74t73 -109.5t26.5 -133
q0 -54 -17 -106t-55 -104l68 -56l-54 -70l-76 63q-101 -71 -212 -71q-74 0 -137 27t-109 74t-72.5 109.5t-26.5 133.5q0 70 26.5 133t73 109.5t109.5 74t136 27.5z" />
    <glyph glyph-name="dotlessi" unicode="&#xd;" horiz-adv-x="214" 
d="M148 419v-431h-83v431h83z" />
    <glyph glyph-name="space" unicode=" " horiz-adv-x="255" 
 />
    <glyph glyph-name="exclam" unicode="!" horiz-adv-x="210" 
d="M107 98q27 -1 44.5 -20.5t17.5 -45.5q0 -27 -19.5 -46.5t-46.5 -18.5q-26 1 -44 20t-17 45q0 27 19 47t46 19zM151 624v-448h-86v448h86z" />
    <glyph glyph-name="quotedbl" unicode="&#x22;" horiz-adv-x="233" 
d="M22 624h73l-9 -153h-55zM139 624h73l-9 -153h-55z" />
    <glyph glyph-name="numbersign" unicode="#" horiz-adv-x="620" 
d="M345 324l10 75h-78l-11 -75h79zM612 478v-79h-176l-10 -75h166v-76h-176l-35 -259h-85l38 259h-78l-38 -259h-80l36 259h-166v76h177l10 75h-166v79h176l32 241h85l-34 -241h77l31 241h83l-33 -241h166z" />
    <glyph glyph-name="dollar" unicode="$" horiz-adv-x="445" 
d="M238 56q46 13 70 45t24 70t-23.5 63.5t-70.5 51.5v-230zM143 481q0 -28 18 -47t53 -39v160q-34 -7 -52.5 -27t-18.5 -47zM262 373q34 -17 63 -34.5t50.5 -40t33.5 -52t12 -70.5q0 -38 -12.5 -72t-35.5 -60.5t-57.5 -44.5t-77.5 -22v-56h-24v56q-71 8 -120 44t-74 99
l77 38q21 -37 47.5 -63t69.5 -38v241l-56.5 29t-51 35.5t-37 47.5t-14.5 65q0 64 42 107.5t117 48.5v61h24v-61q106 -15 148 -103l-73 -44q-14 26 -30 41t-45 26v-168l15 -6t9 -4z" />
    <glyph glyph-name="percent" unicode="%" horiz-adv-x="853" 
d="M246 332q11 24 16 56.5t5 63.5q2 85 -21 134.5t-79 49.5q-35 0 -55 -18.5t-30.5 -46.5t-13 -59.5t-2.5 -58.5q0 -35 5 -66.5t16.5 -55.5t31 -38.5t49.5 -14.5q29 0 48 14t30 40zM766 97q11 24 16 56.5t5 63.5q1 42 -4 76t-17 57.5t-31 36.5t-47 13q-33 0 -52.5 -17
t-30.5 -44t-14.5 -59t-3.5 -62q0 -35 4.5 -66.5t16 -55.5t31 -38.5t49.5 -14.5q29 0 48 14t30 40zM168 699q61 0 96.5 -28t53 -67t21.5 -81.5t3 -70.5q0 -14 -1.5 -37t-7.5 -49t-17 -53t-31 -49t-49.5 -35.5t-71.5 -13.5q-51 0 -84.5 21.5t-53.5 56t-28 77t-8 85.5
q0 31 5.5 73.5t24.5 80t54 64t94 26.5zM589 689l17 -14l-32 -68.5l-23 -52l-19 -45.5l-20 -49l-99 -241l-42.5 -104.5t-23.5 -58.5l-12 -31.5l-9 -23.5l-15 -11q-17 0 -24.5 -0.5t-24.5 -1.5l-13 18l22.5 48.5l22 49l26 61l34.5 83.5l102 246l21 51.5l21 51.5t16.5 41.5
l13.5 38.5l17 11q16 0 23 0.5t21 0.5zM689 463q61 0 96 -28t52.5 -67t21.5 -81t3 -70q0 -14 -1.5 -37t-7.5 -49.5t-17.5 -53.5t-31 -48.5t-49 -35t-70.5 -13.5q-51 0 -84.5 21t-53.5 55t-28 77t-8 87q0 31 5.5 73t24.5 79.5t54 64t94 26.5z" />
    <glyph glyph-name="ampersand" unicode="&#x26;" horiz-adv-x="589" 
d="M220 64q38 0 64 21.5t52 57.5l-128 147q-42 -23 -68.5 -50.5t-26.5 -70.5q0 -24 9 -43.5t24 -33.5t34.5 -21.5t39.5 -7.5v1zM231 396q32 17 56.5 39.5t24.5 54.5q0 15 -6 28.5t-15.5 24t-22 16.5t-25.5 6q-10 0 -23.5 -4t-26 -11.5t-21 -19.5t-8.5 -28q0 -9 5 -26t12 -25
zM445 151l141 -162h-112l-79 88q-37 -42 -76.5 -69.5t-87.5 -27.5q-44 0 -83 12.5t-68.5 36.5t-46.5 58.5t-17 78.5q0 61 35.5 107t98.5 81l-26 29.5t-25.5 34t-19.5 36t-8 37.5q0 34 14 61.5t37.5 47t54.5 30t66 10.5q33 0 62.5 -11.5t51.5 -31.5t34.5 -47.5t12.5 -58.5
q0 -51 -32 -90.5t-86 -68.5l99 -113l69 109h99l-15.5 -25.5l-7.5 -12.5l-41 -65.5z" />
    <glyph glyph-name="quotesingle" unicode="'" horiz-adv-x="173" 
d="M50 624h73l-9 -153h-55z" />
    <glyph glyph-name="parenleft" unicode="(" horiz-adv-x="222" 
d="M169 683q0 -18 2.5 -35.5t5.5 -31.5t5.5 -23.5t3.5 -11.5q-39 -64 -55.5 -138.5t-16.5 -143.5q0 -67 16 -138.5t56 -132.5l-26 -86q-67 85 -95 176.5t-28 184.5q0 95 30 190.5t102 189.5z" />
    <glyph glyph-name="parenright" unicode=")" horiz-adv-x="262" 
d="M82 671q67 -88 95 -181.5t28 -187.5q0 -96 -28.5 -188.5t-90.5 -166.5l-2 16q0 -8 -4 -7t-9 4q0 9 -3 24l-8 29l-4 15q40 61 55.5 132.5t15.5 139.5q0 69 -16.5 143.5t-54.5 137.5z" />
    <glyph glyph-name="asterisk" unicode="*" horiz-adv-x="484" 
d="M481 428v-72l-154 1l109 -109l-51 -51l-108 110l1 -154h-72l1 154l-109 -110l-51 51l110 109l-154 -1v72l154 -1l-110 108l51 51l109 -109l-1 154h72l-1 -154l108 109l51 -51l-109 -108z" />
    <glyph glyph-name="plus" unicode="+" horiz-adv-x="484" 
d="M481 273v-73h-203v-203h-72v204h-203v72h203v203h72v-204z" />
    <glyph glyph-name="comma" unicode="," horiz-adv-x="208" 
d="M144 54q7 -12 11.5 -26t6.5 -31q3 -24 -6.5 -52.5t-22 -52.5t-23 -40.5l-10.5 -16.5l-53 22q3 4 9.5 17t13 29t10.5 33.5t1 31.5q-2 10 -7 21t-11.5 21t-12.5 17.5t-8 10.5l71 72l18 -32t13 -24z" />
    <glyph glyph-name="hyphen" unicode="-" horiz-adv-x="250" 
d="M225 273v-73h-221v73h221z" />
    <glyph glyph-name="period" unicode="." horiz-adv-x="258" 
d="M113 98q27 -2 44.5 -21t17.5 -45q0 -27 -19.5 -46.5t-46.5 -18.5q-26 2 -44 20.5t-17 44.5q0 27 19 47t46 19z" />
    <glyph glyph-name="slash" unicode="/" horiz-adv-x="315" 
d="M281 655h87l-333 -696h-88z" />
    <glyph glyph-name="zero" unicode="0" horiz-adv-x="476" 
d="M240 52q30 0 52 12.5t37 33.5t22 48t7 56t-7 57t-22 49.5t-37 34.5t-52 13t-52 -13t-36.5 -34.5t-21.5 -49t-7 -56.5q0 -30 7 -57.5t21 -48.5t36.5 -33.5t52.5 -12.5v1zM237 429q48 0 86.5 -17.5t65.5 -48t41.5 -71.5t14.5 -89q0 -47 -14.5 -88t-41.5 -71.5t-65.5 -48
t-86.5 -17.5t-86 17.5t-64.5 48.5t-40.5 72t-14 88q0 46 14.5 87t41 72t64.5 48.5t85 17.5z" />
    <glyph glyph-name="one" unicode="1" horiz-adv-x="219" 
d="M201 419v-430h-89v342l-69 -29l-29 71l98 41v5h89z" />
    <glyph glyph-name="two" unicode="2" horiz-adv-x="447" 
d="M395 66l1 -78h-338l-7 70q18 3 42.5 14t51 27.5t52 37t46 42.5t33 44.5t12.5 42.5q0 21 -8 37.5t-20.5 27.5t-29 17t-33.5 6q-26 0 -47.5 -9.5t-31.5 -17.5t-11 -9l-35 61l11 9t28.5 20.5t40 20.5t45.5 9q88 0 138.5 -46t50.5 -132q0 -32 -17.5 -58.5t-44.5 -51.5
q-22 -20 -49 -41l-57 -44z" />
    <glyph glyph-name="three" unicode="3" horiz-adv-x="448" 
d="M242 168q34 -12 67 -32.5t58.5 -47t41 -56t15.5 -59.5q0 -43 -17 -79t-46 -62t-68 -40.5t-83 -14.5q-19 0 -34.5 3t-30.5 8q-15 6 -33.5 16t-36 23.5t-32 29.5t-21.5 34l70 75q15 -48 47 -76t80 -28q21 0 40.5 8t34.5 22.5t24 34.5t9 44q0 37 -21 63t-54 42t-73.5 24
t-80.5 11l171 222h-198v86h364z" />
    <glyph glyph-name="four" unicode="4" horiz-adv-x="540" 
d="M161 67h133v153zM534 66v-78h-150v-211l-88 -3v215h-302l390 471v-394h150z" />
    <glyph glyph-name="five" unicode="5" horiz-adv-x="414" 
d="M155 195q53 -2 97 -17.5t75.5 -43t48.5 -66t17 -86.5q0 -45 -16.5 -83.5t-46 -66.5t-69.5 -43.5t-87 -15.5q-48 0 -87 24t-69 63l51 68q54 -74 115 -74q24 0 44.5 10.5t36.5 28t25 40.5t9 48q0 31 -13.5 56.5t-35 42.5t-48.5 26.5t-53 9.5q-19 0 -40.5 -4.5t-56.5 -13.5
l40 321h288l2 -82h-211z" />
    <glyph glyph-name="six" unicode="6" horiz-adv-x="450" 
d="M237 58q22 0 42 9t35 25t23.5 37t8.5 45q0 23 -8.5 45t-23.5 39t-35 27t-43 10q-14 0 -30.5 -3t-32.5 -9t-31 -15.5t-25 -22.5q-7 -8 -9.5 -28t-2.5 -33q0 -29 11 -52.5t29.5 -40t42.5 -25.5t49 -9v1zM245 375q42 0 77 -15.5t61 -42.5t40.5 -62t14.5 -74q0 -43 -16.5 -80
t-45 -64.5t-67 -43t-83.5 -15.5q-53 0 -93 20.5t-66.5 54t-40 77.5t-13.5 92q0 54 15.5 111.5t43.5 111.5t66.5 101t85.5 81l56 -45q-31 -24 -55.5 -49t-44.5 -53.5t-35.5 -62t-27.5 -75.5q23 16 45 23.5t49 8.5q8 1 17 1h17z" />
    <glyph glyph-name="seven" unicode="7" horiz-adv-x="460" 
d="M33 419h418l-347 -635h-95l298 555h-274v80z" />
    <glyph glyph-name="eight" unicode="8" horiz-adv-x="437" 
d="M216 54q20 0 40 9.5t35.5 25.5t25.5 36.5t10 42.5q0 18 -10.5 35.5t-27 33.5t-37 30.5t-41.5 27.5q-19 -13 -36.5 -27.5t-31.5 -31.5t-22.5 -36.5t-8.5 -41.5q0 -21 9 -40.5t24 -33.5t33.5 -22.5t37.5 -8.5v1zM221 380q31 21 53.5 51t22.5 62q0 16 -7 31t-18 26.5t-25 18
t-28 6.5t-28 -5t-26 -14.5t-19.5 -23t-7.5 -31.5q0 -36 24 -67t59 -54zM291 339q58 -37 89 -76.5t31 -95.5q0 -38 -15 -72.5t-41.5 -60.5t-61.5 -42t-74 -16q-87 0 -140 46.5t-53 130.5q0 57 29.5 102.5t86.5 85.5q-42 36 -65 74.5t-23 80.5q0 33 13 60.5t35.5 47t53 30.5
t64.5 11t63 -11.5t50.5 -31.5t33.5 -47.5t12 -60.5q0 -84 -88 -155z" />
    <glyph glyph-name="nine" unicode="9" horiz-adv-x="450" 
d="M333 166q7 8 10 28t3 34q0 28 -11 51.5t-30 40t-43 25.5t-49 9q-22 0 -41.5 -9.5t-34.5 -25t-23.5 -36.5t-8.5 -45t8.5 -45.5t23 -38.5t34.5 -27t43 -10q14 0 30.5 2.5t32.5 8.5t30.5 15t25.5 23zM224 433q53 0 93 -20t67 -54t40.5 -77.5t13.5 -91.5q0 -54 -15.5 -111.5
t-43.5 -111.5t-67 -101.5t-86 -81.5l-55 46q30 24 54.5 49t44.5 53.5t35.5 62t27.5 75.5q-23 -17 -45 -24t-49 -9h-34q-42 0 -77 15.5t-60.5 42t-40 62t-14.5 74.5q0 43 16 80t44.5 64t67 42.5t83.5 15.5z" />
    <glyph glyph-name="colon" unicode=":" horiz-adv-x="222" 
d="M113 98q27 -2 44.5 -21t17.5 -45q0 -27 -19.5 -46.5t-46.5 -18.5q-26 2 -44 20.5t-17 44.5q0 27 19 47t46 19zM113 423q27 -2 44.5 -21t17.5 -45q0 -27 -19.5 -46.5t-46.5 -18.5q-26 2 -44 20.5t-17 44.5q0 27 19 47t46 19z" />
    <glyph glyph-name="semicolon" unicode=";" horiz-adv-x="208" 
d="M152 54q6 -12 11 -26t7 -31q3 -24 -6.5 -52.5t-22 -52.5t-23.5 -40.5l-11 -16.5l-52 22q3 4 9.5 17t13 29t10.5 33.5t1 31.5q-2 10 -7.5 21t-12 21t-12 17.5t-8.5 10.5l72 72l18 -32t13 -24zM104 423q26 -2 43.5 -21t17.5 -45q0 -27 -19.5 -46t-46.5 -19q-26 1 -43.5 20
t-17.5 45q0 27 19 47t47 19z" />
    <glyph glyph-name="less" unicode="&#x3c;" horiz-adv-x="620" 
d="M655 68v-89l-689 333v84l689 330v-88l-586 -284z" />
    <glyph glyph-name="equal" unicode="=" horiz-adv-x="620" 
d="M655 243v-81h-689v81h689zM655 419v-81h-689v81h689z" />
    <glyph glyph-name="greater" unicode="&#x3e;" horiz-adv-x="620" 
d="M655 396v-84l-689 -333v89l586 286l-586 284v88z" />
    <glyph glyph-name="question" unicode="?" horiz-adv-x="368" 
d="M187 98q27 -1 44.5 -20.5t17.5 -45.5q0 -27 -19.5 -46.5t-46.5 -18.5q-26 1 -43.5 20t-17.5 45q0 27 19 47t46 19zM173 635q33 0 63.5 -10.5t54 -29.5t38 -45.5t14.5 -58.5q0 -26 -9 -47.5t-24.5 -38.5t-35 -31t-40.5 -26q-20 -12 -40 -22.5t-36 -20.5
q-20 -12 -28.5 -23.5t-8.5 -21.5t5 -18.5t12 -14.5t15.5 -9.5t15.5 -3.5q6 0 18 6.5t25 14.5t24 15.5t15 10.5l47 -48q-12 -13 -28 -25.5t-33 -22.5t-35 -16t-33 -6q-26 0 -49 9.5t-40 25.5t-27 37.5t-10 45.5q0 23 9 41.5t24 33.5t34.5 27.5t40.5 23.5l21 11.5l20 10.5
l19 11.5t17 11.5q16 12 26.5 26t10.5 33q0 18 -9.5 31.5t-24 22.5t-30.5 13.5t-28 4.5q-19 0 -36.5 -8.5t-32.5 -19.5t-25 -21.5l-14 -14.5l-43 67l13 11t34.5 23.5t48.5 23.5t55 11z" />
    <glyph glyph-name="at" unicode="@" horiz-adv-x="650" 
d="M400 219q1 2 1 6q0 34 -22.5 47.5t-47.5 13.5t-43.5 -10.5t-31 -27.5t-19 -39.5t-6.5 -47.5q0 -39 18.5 -66t55.5 -27q13 0 27.5 3t27 9t21 15t9.5 21zM333 497q75 0 132 -22.5t95.5 -60t58.5 -86t20 -100.5q0 -48 -10.5 -92t-30 -77.5t-48 -53.5t-65.5 -20
q-28 0 -57.5 2.5t-55.5 5.5l6 21q-26 -14 -45 -20.5t-39 -6.5q-38 0 -66 12.5t-47 35t-28 52t-9 64.5q0 41 13 79.5t37 68t59.5 47.5t80.5 18q23 0 42 -6t39 -20l7 12h70l-33 -313h29q18 0 33.5 16t27 42t18.5 60.5t7 72.5q0 51 -21.5 90t-55.5 65.5t-77.5 40.5t-86.5 14
q-46 0 -91.5 -20t-81.5 -54t-59 -79t-23 -95q-1 -52 15 -105t67 -107l-43 -45q-47 48 -76 115t-30 142q-1 55 23 110t67.5 99t102.5 71t129 27z" />
    <glyph glyph-name="A" unicode="A" horiz-adv-x="661" 
d="M213 231h234l-116 292zM387 624l251 -636h-96l-64 164h-296l-65 -164h-94l258 636h106z" />
    <glyph glyph-name="B" unicode="B" horiz-adv-x="488" 
d="M237 69q24 0 46 6t39.5 19t28 33.5t10.5 50.5t-10 51.5t-27.5 35.5t-40 21t-47.5 7h-119v-225zM208 372q16 0 30.5 8t24.5 21.5t16 30t6 33.5q0 24 -9 40t-23.5 25t-32 13t-35.5 4h-68v-176zM317 355q38 -12 65 -32t44 -44.5t25 -52.5t8 -58q0 -46 -16.5 -80t-45 -56
t-67.5 -33t-84 -11h-217v636h197q34 0 63 -9t50.5 -26t33.5 -43t12 -59q0 -32 -15 -66t-53 -66z" />
    <glyph glyph-name="C" unicode="C" horiz-adv-x="624" 
d="M575 125l43 -85q-24 -15 -57.5 -29.5t-69.5 -26t-71 -19t-63 -7.5q-74 0 -137 27t-110 74t-73.5 110t-26.5 134q0 70 27 132.5t73.5 109.5t110 74t136.5 27q31 0 65.5 -4.5t68.5 -13.5t65.5 -23t57.5 -34l-39 -89q-52 42 -106.5 59.5t-107.5 17.5q-51 0 -97 -20
t-81 -54.5t-56 -81t-21 -100.5q0 -53 20 -99.5t54.5 -81.5t80 -55.5t96.5 -20.5q60 0 110.5 20.5t107.5 58.5z" />
    <glyph glyph-name="D" unicode="D" horiz-adv-x="643" 
d="M229 72q59 0 110.5 12t89 40t59 74.5t21.5 114.5q0 65 -25 108.5t-65.5 70t-92 38t-104.5 11.5h-99v-470zM269 624q73 0 135 -22t107.5 -63.5t71 -99.5t25.5 -130q0 -79 -26 -139t-72.5 -100.5t-111 -61t-142.5 -20.5h-221v636h234z" />
    <glyph glyph-name="E" unicode="E" horiz-adv-x="458" 
d="M432 67v-79h-406v636h387v-79h-299v-183h280v-79h-280v-217z" />
    <glyph glyph-name="F" unicode="F" horiz-adv-x="434" 
d="M411 624v-78h-299v-184h280v-79h-280v-295h-88v636h387z" />
    <glyph glyph-name="G" unicode="G" horiz-adv-x="630" 
d="M607 322v-297q-28 -11 -59.5 -21.5t-63.5 -19t-63 -13.5t-58 -5q-74 0 -136.5 26.5t-107.5 73t-70.5 108.5t-25.5 134q0 73 26.5 134t73.5 105.5t110.5 69.5t137.5 25q26 0 55.5 -3.5t59.5 -11t59 -18t54 -23.5l-30 -86q-50 33 -101 46.5t-99 13.5q-51 0 -97 -17.5
t-80 -49.5t-54 -77.5t-20 -100.5t18.5 -103t51.5 -84t79 -57t100 -21q31 0 72 7.5t79 25.5v161h-127v78h216z" />
    <glyph glyph-name="H" unicode="H" horiz-adv-x="596" 
d="M556 624v-636h-88v295h-340v-295h-88v636h88v-262h340v262h88z" />
    <glyph glyph-name="I" unicode="I" horiz-adv-x="204" 
d="M146 624v-636h-88v636h88z" />
    <glyph glyph-name="J" unicode="J" horiz-adv-x="390" 
d="M355 624v-503q0 -30 -12 -57t-33 -46.5t-49 -31t-60 -11.5q-59 0 -103 32.5t-67 90.5l74 37q21 -34 45 -57t45 -23q15 0 28.5 7t24.5 18.5t17.5 26.5t6.5 32v485h83z" />
    <glyph glyph-name="K" unicode="K" horiz-adv-x="535" 
d="M118 303v-315h-82v636h81v-244h15l238 244h104l-283 -289l322 -347h-112z" />
    <glyph glyph-name="L" unicode="L" horiz-adv-x="435" 
d="M397 63v-75h-359v636h81v-562z" />
    <glyph glyph-name="M" unicode="M" horiz-adv-x="703" 
d="M666 624v-636h-89v502l-236 -282q-3 7 -16 26t-32 44.5l-42.5 55.5l-46.5 58.5l-43.5 54l-33.5 42.5v-501h-89v636h83l222 -271l233 271h90z" />
    <glyph glyph-name="N" unicode="N" horiz-adv-x="652" 
d="M608 624v-636h-87l-391 477v-477h-87v636h73l405 -494v494h87z" />
    <glyph glyph-name="O" unicode="O" horiz-adv-x="738" 
d="M370 55q51 0 96.5 20t80 55t55 81.5t20.5 99.5t-19.5 99.5t-53.5 81t-79 54.5t-96 20t-97 -20t-81.5 -54.5t-56 -81t-20.5 -99.5t20 -99.5t54.5 -81.5t80 -55.5t96.5 -20.5v1zM369 654q73 0 136.5 -27.5t110.5 -74.5t74 -109.5t27 -133.5t-27 -133.5t-74 -109
t-110.5 -73.5t-136.5 -27t-136.5 27t-110 74t-73.5 109.5t-27 133.5t27 133.5t74 109.5t110 74t136 27z" />
    <glyph glyph-name="P" unicode="P" horiz-adv-x="474" 
d="M193 326q23 0 49.5 3.5t49 15t37 32t14.5 54.5q0 36 -14 57.5t-36 33t-48.5 14.5t-51.5 3h-73v-214zM193 624q54 0 99 -10t78 -33t51.5 -61t18.5 -95q0 -53 -20.5 -88.5t-54.5 -56.5t-78.5 -30t-93.5 -9h-73v-253h-86v636h159z" />
    <glyph glyph-name="Q" unicode="Q" horiz-adv-x="738" 
d="M364 55q51 0 97 20t80.5 55t54.5 81.5t20 99.5t-19.5 99.5t-53 81t-79 54.5t-96.5 20t-97 -20t-81.5 -54.5t-56 -81t-20.5 -99.5t20 -99.5t54.5 -81.5t80 -55.5t96.5 -20.5v1zM478 -15l248 -92l-27 -72l-420 155q-57 14 -105.5 45.5t-83.5 75.5t-54.5 98.5t-19.5 114.5
q0 71 27 133.5t74 109.5t110 74t136 27t136.5 -27.5t110.5 -74.5t74 -109.5t27 -133.5q0 -56 -17 -107.5t-48 -93.5t-74 -74t-94 -49z" />
    <glyph glyph-name="R" unicode="R" horiz-adv-x="477" 
d="M208 345q22 0 43.5 6.5t38.5 20t27.5 34t10.5 47.5q0 19 -9.5 36t-23.5 29t-31 19t-33 7h-99v-200zM375 195q19 -26 40.5 -61.5l39.5 -68l29.5 -55l11.5 -22.5h-102q-1 3 -9 20.5l-20 42t-27 51.5t-29 48q-11 16 -25.5 34.5l-28.5 35l-25.5 29.5l-16.5 19h-81v-280h-88
v636h164q40 0 79 -11t69 -33t48.5 -54t18.5 -74q0 -52 -30.5 -96.5t-86.5 -74.5l32.5 -39t36.5 -47z" />
    <glyph glyph-name="S" unicode="S" horiz-adv-x="445" 
d="M262 373q34 -17 63 -34.5t50.5 -40t33.5 -52t12 -70.5q0 -40 -14 -76.5t-39 -64t-60 -43.5t-78 -16q-72 0 -127.5 37.5t-82.5 106.5l77 38q26 -45 58 -74t75 -29q21 0 39.5 10t32.5 26t22 37t8 43q0 42 -26.5 67.5t-63.5 45.5q-12 7 -24.5 13l-26.5 13q-26 13 -50.5 28
t-43.5 34t-30.5 44t-11.5 59t12 63t33.5 50t51 33t65.5 12q55 0 99 -26t70 -79l-73 -44q-40 71 -99 71q-27 0 -49 -21t-22 -53q0 -19 7.5 -33t19.5 -25t26.5 -19t28.5 -14q10 -5 19.5 -8.5t17.5 -8.5z" />
    <glyph glyph-name="T" unicode="T" horiz-adv-x="524" 
d="M507 624v-79h-205v-557h-88v558h-197v78h490z" />
    <glyph glyph-name="U" unicode="U" horiz-adv-x="628" 
d="M601 624v-368q0 -66 -21.5 -119t-61 -90.5t-94.5 -57.5t-122 -20q-66 0 -117 22t-86.5 60t-54 90.5t-18.5 114.5v368h88v-306q0 -47 9 -94t30.5 -84.5t58.5 -61t93 -23.5q60 0 100 21t64 57t34 84t10 101v103v203h88z" />
    <glyph glyph-name="V" unicode="V" horiz-adv-x="590" 
d="M496 624h94l-248 -636h-106l-236 636h96l196 -534z" />
    <glyph glyph-name="W" unicode="W" horiz-adv-x="868" 
d="M784 624h94l-207 -636h-79l-161 484l-155 -484h-81l-7 25l-24 73l-72 222l-103 316h95l152 -479l150 472h92l151 -472z" />
    <glyph glyph-name="X" unicode="X" horiz-adv-x="648" 
d="M384 325l243 -337h-113l-187 259l-192 -259h-114l251 336l-217 300h114l161 -222l166 222h110z" />
    <glyph glyph-name="Y" unicode="Y" horiz-adv-x="508" 
d="M391 624h102l-201 -330v-306h-92v298l-185 338h103l129 -241z" />
    <glyph glyph-name="Z" unicode="Z" horiz-adv-x="599" 
d="M572 74v-86h-555l398 559h-386v77h547l-389 -551z" />
    <glyph glyph-name="bracketleft" unicode="[" horiz-adv-x="272" 
d="M227 776l14 -14q-3 -16 -4 -23.5t-2 -24.5l-14 -14q-20 0 -32 0.5t-22 0.5h-20h-23q-3 -131 -3 -263v-320q0 -26 0.5 -62l1 -74.5t2 -74.5t3.5 -62h25h21h23h28l15 -16q-3 -14 -3.5 -20t-1.5 -20l-13 -15h-41h-33t-39.5 -0.5t-60.5 -1.5l-15 15q1 61 1.5 103.5t0.5 78.5
v69v81v307v120t-0.5 85.5t-1.5 66l-2 61.5l13 15h44h51t49.5 0.5t38.5 1.5z" />
    <glyph glyph-name="backslash" unicode="\" horiz-adv-x="407" 
d="M305 169l24 -58.5l29 -66.5l35.5 -79l44.5 -95l-12 -19q-12 0 -20.5 0.5t-16.5 0.5h-12q-5 0 -17 -1l-16 11q-8 15 -10 26l-25.5 67l-20.5 52l-20.5 51.5l-26.5 64.5l-125 301l-70 166.5t-77 166.5l14 19q12 0 20.5 -0.5t14.5 -0.5q7 0 14 0.5t17 0.5l16 -11l30 -82.5
l24 -63l27.5 -67l39.5 -95.5z" />
    <glyph glyph-name="bracketright" unicode="]" horiz-adv-x="272" 
d="M236 121v-120t0.5 -85.5t1 -66t2.5 -61.5l-13 -15h-44h-51q-25 0 -48.5 -0.5t-38.5 -1.5l-14 14q1 10 2 16t1.5 10.5l1 9t1.5 12.5l14 14q19 0 31.5 -0.5t21.5 -0.5h20h24q1 66 1.5 131.5t0.5 131.5v321q0 42 -0.5 86.5t-1.5 89.5l-1.5 59.5t-2.5 37.5q-15 0 -26 0.5
t-22 0.5q-10 0 -22 -0.5t-29 -0.5l-13 16q2 13 2.5 19.5t2.5 20.5l12 15h41h33t39.5 0.5t61.5 1.5l13 -15q-1 -63 -1 -107v-80v-70v-75v-308z" />
    <glyph glyph-name="asciicircum" unicode="^" horiz-adv-x="678" 
d="M380 717l185 -378h-100l-125 260l-127 -260h-100l191 378h76z" />
    <glyph glyph-name="underscore" unicode="_" horiz-adv-x="465" 
d="M504 -198v-72h-543v72h543z" />
    <glyph glyph-name="grave" unicode="`" horiz-adv-x="323" 
d="M148 624l117 -102h-73l-139 102h95z" />
    <glyph glyph-name="a" unicode="a" horiz-adv-x="417" 
d="M174 46q14 0 32.5 6.5t36.5 15t33 17.5l23 14v91q-22 -3 -52 -9.5t-57.5 -17t-47 -25.5t-19.5 -36q0 -24 15.5 -40.5t35.5 -16.5v1zM382 306v-318h-83v29q-32 -16 -65.5 -29t-59.5 -13q-29 0 -54.5 10t-44 27.5t-29.5 40.5t-11 49q0 42 22 71t58 48.5t82 31t94 16.5v37
q0 13 -6.5 25t-16.5 21.5t-22.5 15.5t-25.5 6q-20 0 -40.5 -6.5t-37.5 -15t-29.5 -16.5t-16.5 -11l-31 68l13 9t35 19.5t51 19.5t61 9q28 0 56.5 -9t50.5 -27t36 -45t14 -63z" />
    <glyph glyph-name="b" unicode="b" horiz-adv-x="479" 
d="M224 64q28 0 53.5 11.5t45 31.5t31.5 46t12 56t-12 56t-31.5 45.5t-45.5 30.5t-53 11q-15 0 -35.5 -3t-39 -10t-31.5 -17t-13 -24v-168q0 -11 12 -23t29.5 -22t38.5 -16t39 -6v1zM224 436q52 0 95 -17t73.5 -47t47.5 -71.5t17 -91.5q0 -48 -17.5 -90t-48.5 -73.5t-74 -50
t-93 -18.5q-29 0 -56.5 9t-62.5 34v-32h-83v636h83v-226q35 20 62.5 29t56.5 9z" />
    <glyph glyph-name="c" unicode="c" horiz-adv-x="405" 
d="M326 425q17 -5 32 -11l35 -14l-21 -85q-34 21 -64.5 31t-53.5 10q-29 0 -55.5 -12t-46.5 -32.5t-32.5 -48t-12.5 -57.5q0 -33 12.5 -60t33.5 -45.5t48.5 -29t56.5 -10.5q13 0 29 5t31.5 11.5t28 13l18.5 9.5l12 -90q-29 -21 -62 -28t-68 -7q-53 0 -96 18t-74 49.5
t-47.5 74t-16.5 90.5q0 49 15 91t43.5 73t70.5 48t96 17q28 0 49.5 -3t38.5 -8z" />
    <glyph glyph-name="d" unicode="d" horiz-adv-x="460" 
d="M236 65q19 0 40 5.5t39 14.5t29.5 21t11.5 25v130q0 25 -11 42.5t-28 28t-37 15.5t-38 5q-30 0 -53.5 -11.5t-39.5 -31t-24.5 -45.5t-8.5 -56q0 -27 8 -53t23 -46.5t37.5 -32.5t51.5 -12v1zM439 624v-636h-83v30q-36 -20 -65 -31t-55 -11q-50 0 -90 18.5t-67.5 50t-42 73
t-14.5 88.5q0 46 14.5 88t42 73.5t67.5 50t90 18.5q29 0 57 -8t63 -30v226h83z" />
    <glyph glyph-name="e" unicode="e" horiz-adv-x="480" 
d="M121 272h242q-41 90 -118 90q-40 0 -71 -21.5t-53 -69.5v1zM248 440q51 0 90 -19t65.5 -51.5t41 -76t16.5 -93.5h-349q9 -70 48 -106.5t98 -36.5q47 0 84.5 18t84.5 53l21 -87q-42 -29 -94 -47.5t-100 -18.5q-56 0 -99.5 17.5t-73.5 49.5t-46 75.5t-16 96.5q0 50 16 91.5
t46 71.5t72.5 46.5t94.5 16.5z" />
    <glyph glyph-name="f" unicode="f" horiz-adv-x="355" 
d="M209 633q26 0 46 -3.5t36.5 -9.5t31 -14t28.5 -17l-37 -70q-47 40 -81 40q-32 0 -45.5 -23t-13.5 -54v-64h147v-71h-147v-359h-83v360h-84v71h84v63q0 28 6 55.5t19.5 48.5t36.5 34t56 13z" />
    <glyph glyph-name="g" unicode="g" horiz-adv-x="419" 
d="M199 -185q18 0 40 4.5t41.5 13.5t33 23t13.5 34q0 18 -16.5 31.5t-38 23t-42 14.5l-28.5 7q-17 -8 -38.5 -15.5t-40.5 -16.5q-20 -10 -30 -22t-8 -30t14 -30.5t29 -20.5t36 -12t35 -4zM197 187q31 0 55.5 24t24.5 59q0 18 -6.5 33t-18 26.5t-26 18t-29.5 6.5t-29.5 -6.5
t-26 -18t-18 -26.5t-6.5 -33q0 -17 6.5 -32.5t18 -27t26 -18t29.5 -6.5v1zM144 132q-23 10 -43 26t-35 34.5t-23.5 38t-8.5 37.5q0 33 12.5 62.5t34.5 51.5t52 35t66 13q27 0 50 -7t44 -21h128v-75h-67q6 -21 8.5 -34t2.5 -25q0 -39 -21.5 -67t-47.5 -47q-30 -21 -69 -37
v-74q9 -3 26 -9.5t37 -16t41 -22t38 -27.5t28 -33.5t11 -38.5q0 -38 -17.5 -66t-45.5 -47t-63.5 -28.5t-70.5 -9.5q-30 0 -65 5t-66.5 18.5t-54 37t-26.5 61.5q-3 33 11.5 59t37.5 46.5t49.5 34.5t47.5 23q0 7 -0.5 21t-0.5 31v40v10z" />
    <glyph glyph-name="h" unicode="h" horiz-adv-x="453" 
d="M424 276v-288h-83v229q0 26 -8 49t-22.5 40.5t-35.5 28t-47 10.5q-15 0 -35 -6.5t-38 -18.5t-30.5 -29t-12.5 -39v-264h-83v637h83v-247q36 31 65 42.5t61 11.5q35 0 68.5 -11.5t59.5 -32.5t42 -49.5t16 -62.5z" />
    <glyph glyph-name="i" unicode="i" horiz-adv-x="214" 
d="M145 419v-431h-83v431h83zM109 627q27 -2 44 -21t18 -45q0 -27 -19.5 -47t-46.5 -19t-44.5 20.5t-17.5 45.5q0 27 19 47t47 19z" />
    <glyph glyph-name="j" unicode="j" horiz-adv-x="226" 
d="M195 419v-482q0 -41 -13 -69t-37.5 -45.5t-59.5 -26t-79 -9.5v74q29 1 49 7t33 18.5t18.5 32.5t5.5 49v451h83zM159 625q27 -2 44 -21.5t17 -45.5q0 -28 -19 -47.5t-47 -18.5q-27 1 -44 20.5t-17 45.5q-1 27 18.5 47.5t47.5 19.5z" />
    <glyph glyph-name="k" unicode="k" horiz-adv-x="414" 
d="M188 234l214 -246h-97l-179 210h-18v-210h-83v636h83v-352l12 -1l162 148h93z" />
    <glyph glyph-name="l" unicode="l" horiz-adv-x="279" 
d="M245 61l16 -66q-24 -13 -49 -17.5t-48 -4.5q-24 0 -49.5 8t-46.5 22.5t-34.5 34.5t-13.5 44v542h83v-509q0 -18 9 -31t22 -22t28 -13t27 -4q11 0 28 4.5t28 11.5z" />
    <glyph glyph-name="m" unicode="m" horiz-adv-x="707" 
d="M691 293v-305h-83v275q0 25 -9 42.5t-23.5 28.5t-33.5 16t-39 5q-19 0 -38.5 -5t-35 -16t-25.5 -28.5t-10 -42.5v-275h-83v275q0 24 -9 41t-23 28.5t-32.5 17t-37.5 5.5q-18 0 -37.5 -5t-36 -16.5t-27 -29t-10.5 -41.5v-275h-83v431h83v-27q36 25 64.5 35.5t58.5 10.5
q36 0 69.5 -18t61.5 -51q38 35 79.5 52t84.5 17q36 0 68 -9t56 -27t37.5 -45t13.5 -64z" />
    <glyph glyph-name="n" unicode="n" horiz-adv-x="446" 
d="M416 283v-295h-83v275q0 24 -9.5 41t-24.5 28.5t-34 17t-38 5.5q-18 0 -38 -5t-36.5 -16.5t-27.5 -29t-11 -41.5v-275h-83v431h83v-28q35 29 65.5 38t59.5 9q38 0 70.5 -10t56 -30t37 -49t13.5 -66z" />
    <glyph glyph-name="o" unicode="o" horiz-adv-x="481" 
d="M241 66q27 0 52 11t44 30t30.5 44.5t11.5 54.5t-11 55t-30 45.5t-44 30.5t-53 11q-27 0 -52 -11t-43.5 -30.5t-30 -45.5t-11.5 -55t11 -55t30 -45t44 -30t52 -11v1zM240 433q49 0 91 -18t73 -49.5t49 -73t18 -87.5q0 -47 -18 -88t-49 -72t-73 -49t-91 -18t-91 18t-73 49
t-48.5 72t-17.5 88q0 46 17.5 87.5t48.5 73t73 49.5t91 18z" />
    <glyph glyph-name="p" unicode="p" horiz-adv-x="482" 
d="M229 65q26 0 51.5 10.5t45.5 29t32 43.5t12 54q0 28 -12 54.5t-32 46t-45 31.5t-51 12q-20 0 -41.5 -6.5t-39.5 -17t-29.5 -25t-11.5 -29.5v-140q0 -12 12 -23.5t30 -20.5t39 -14.5t40 -5.5v1zM239 430q49 0 91 -16.5t72.5 -46t47.5 -69.5t17 -88q0 -46 -17.5 -88
t-48 -74t-72 -51t-90.5 -19q-32 0 -62.5 9t-68.5 32v-242h-83v642h83v-38q38 27 68 38t63 11z" />
    <glyph glyph-name="q" unicode="q" horiz-adv-x="456" 
d="M236 55q15 0 34.5 5.5t37.5 15t30.5 22t12.5 26.5v142q0 18 -11.5 33.5t-29 26.5t-37.5 17t-36 6q-29 0 -52 -12.5t-39.5 -32.5t-25.5 -47t-9 -55q0 -25 9.5 -51.5t26.5 -48t40 -35t49 -13.5v1zM434 419v-642h-83v242q-36 -23 -62.5 -32t-58.5 -9q-47 0 -85 18.5
t-66 49.5t-43 71t-15 84q0 45 14 86.5t41 73t66 50.5t88 19q33 0 59.5 -11t61.5 -38v38h83z" />
    <glyph glyph-name="r" unicode="r" horiz-adv-x="322" 
d="M200 429q29 0 54.5 -6.5t51.5 -20.5l-36 -74q-2 1 -12 5.5t-26.5 9.5t-29.5 5q-26 0 -45.5 -9.5t-32 -25.5t-18.5 -37t-6 -45v-243h-83v431h83v-40q31 26 52.5 38t47.5 12z" />
    <glyph glyph-name="s" unicode="s" horiz-adv-x="367" 
d="M233 253q23 -6 45 -14.5t38.5 -23t26.5 -36t10 -52.5q0 -35 -15.5 -63t-41.5 -47.5t-59 -29.5t-69 -10q-44 0 -81.5 13.5t-75.5 42.5l39 69q19 -14 33.5 -23t28 -14t28 -7t32.5 -2q13 0 28.5 4t29.5 12.5t23.5 21.5t9.5 31q0 21 -13.5 33.5t-33.5 20.5q-6 3 -16 3
q-5 1 -11 1.5t-12 1.5l-45 9q-23 5 -44.5 12.5t-37.5 21t-25.5 33.5t-9.5 49q0 32 13 56.5t35.5 41.5t51.5 26t62 9q18 0 39.5 -4.5t43 -12t41.5 -17t36 -18.5l-29 -79q-35 27 -65 39t-62 12q-9 0 -22 -1.5t-24.5 -6t-20 -13.5t-8.5 -23q0 -19 12.5 -29.5t29.5 -16.5
q9 -3 19 -5.5t21 -4.5t22.5 -5t22.5 -5z" />
    <glyph glyph-name="t" unicode="t" horiz-adv-x="385" 
d="M374 419v-75h-180v-209q0 -37 21.5 -56.5t53.5 -19.5q9 0 16 1t14.5 3.5t17 7t24.5 12.5l28 -67q-31 -15 -64 -27t-60 -12q-66 0 -100 39t-34 99v230h-100v74h100v87l83 26v-114z" />
    <glyph glyph-name="u" unicode="u" horiz-adv-x="443" 
d="M411 419v-431h-83v31q-36 -23 -66 -32.5t-59 -9.5q-39 0 -70.5 13t-54 36.5t-35 54.5t-12.5 67v271h83v-251q0 -22 7.5 -42.5t21 -36t32 -25t40.5 -9.5q21 0 41.5 9t36.5 24t25.5 35.5t9.5 44.5v251h83z" />
    <glyph glyph-name="v" unicode="v" horiz-adv-x="478" 
d="M374 419h97l-190 -431h-105l-168 431h91l132 -333z" />
    <glyph glyph-name="w" unicode="w" horiz-adv-x="688" 
d="M588 419h91l-145 -431h-101l-90 255l-88 -255h-101l-145 431h91l110 -324l103 298h57l108 -298z" />
    <glyph glyph-name="x" unicode="x" horiz-adv-x="472" 
d="M290 223l163 -235h-106l-110 163l-118 -163h-101l172 233l-133 198h97l88 -127l94 127h96z" />
    <glyph glyph-name="y" unicode="y" horiz-adv-x="465" 
d="M362 419h98l-220 -464q-18 -38 -36 -70t-43 -56t-59 -39t-84 -17v86q35 2 59 11t44 32q12 14 22 31t18 35q8 17 15.5 35.5t16.5 38.5l-188 377h100l135 -266z" />
    <glyph glyph-name="z" unicode="z" horiz-adv-x="455" 
d="M423 71v-83h-401l247 356h-233v75h380l-236 -349z" />
    <glyph glyph-name="braceleft" unicode="{" horiz-adv-x="329" 
d="M290 -178v-52l-49.5 5.5t-38.5 7.5t-31 13.5t-26 22.5q-27 31 -31.5 69t-4.5 80v119q0 50 -2 74t-9 41q-10 25 -24 33.5t-34 16.5v43q20 8 34 16.5t24 33.5q7 17 9 41t2 74v119q0 42 4.5 80t31.5 69q12 14 26 22.5t31 13.5t38.5 7.5l49.5 5.5v-52q-34 -10 -53 -22.5
t-28.5 -30.5t-11.5 -43.5t-2 -61.5v-78q0 -41 -0.5 -69.5t-3 -49t-8 -36t-14.5 -28.5t-18 -20t-18 -12q9 -5 18 -12.5t18 -20.5q9 -14 14.5 -29t8 -35.5t3 -49.5t0.5 -69v-78q0 -36 2 -61.5t11.5 -43.5t28.5 -30.5t53 -22.5z" />
    <glyph glyph-name="bar" unicode="|" horiz-adv-x="213" 
d="M147 761v-1022h-81v1022h81z" />
    <glyph glyph-name="braceright" unicode="}" horiz-adv-x="329" 
d="M290 295v-43q-21 -8 -35 -16.5t-24 -33.5q-7 -17 -8.5 -41t-1.5 -74v-119q0 -42 -5 -80t-32 -69q-12 -14 -26 -22.5t-31 -13.5t-38 -7.5t-49 -5.5v52q33 10 52 22.5t28.5 30.5t12 43.5t2.5 61.5v78q0 40 0.5 69t3 49.5t7.5 35.5t15 29q8 13 17 20t18 12q-9 5 -18 12.5
t-17 20.5q-10 13 -15 28.5t-7.5 36t-3 49t-0.5 69.5v78q0 36 -2.5 61.5t-12 43.5t-28.5 30.5t-52 22.5v52q28 -3 49 -5.5t38 -7.5t31 -13.5t26 -22.5q27 -31 32 -69t5 -80v-119q0 -50 1.5 -74t8.5 -41q10 -25 24 -33.5t35 -16.5z" />
    <glyph glyph-name="asciitilde" unicode="~" horiz-adv-x="678" 
d="M540 376l43 -76q-29 -36 -62.5 -61.5t-79.5 -25.5q-23 0 -45 7.5t-56 24.5l-29 14q-17 8 -37.5 16t-41.5 8q-23 0 -39 -13q-8 -6 -18 -18q-6 -6 -13.5 -15l-21.5 -27l-44 73q7 12 18.5 27.5t28 29.5t38 24t50.5 10q32 0 61 -11.5t57 -24.5l32 -15q24 -11 36.5 -15
t23.5 -4q30 0 52.5 21t46.5 51z" />
    <glyph glyph-name="florin" unicode="&#x192;" horiz-adv-x="329" 
d="M357 693l13 -15l-3 -27.5t-3 -23.5l-15 -13q-13 4 -22 6t-22 2q-22 0 -35 -7t-21 -23t-12 -42.5t-7 -64.5l-5 -51q18 1 42 1t50 1l13 -15l-3.5 -13.5t-2 -10.5t-1.5 -10t-2 -13l-13 -14q-15 0 -26 0.5t-20 0.5h-19h-24l-28 -288q-3 -28 -6 -66.5t-7 -66.5
q-4 -29 -12 -54.5t-24 -45t-42.5 -31t-67.5 -11.5q-20 0 -32.5 2t-29.5 5l-11 15q2 14 3 23l3 28l14 14q13 -5 22 -7t23 -2q20 0 32.5 6.5t20 18.5t11 28.5t6.5 37.5q1 6 3.5 30.5l5.5 53l5.5 54.5t3.5 35l21 221q-17 0 -30 -0.5l-38 -1.5l-13 13q3 18 4 26l3 25l13 13
q27 -2 39 -2h29l6 64q3 40 8 76.5t20 64.5t44 44.5t80 16.5q19 0 31.5 -2t27.5 -5z" />
    <glyph glyph-name="quotedblbase" unicode="&#x201e;" horiz-adv-x="301" 
d="M77 66h86l-99 -160h-65zM217 66h87l-100 -160h-64z" />
    <glyph glyph-name="ellipsis" unicode="&#x2026;" horiz-adv-x="930" 
d="M132 98q23 0 39.5 -15.5t16.5 -41.5q0 -25 -16 -41.5t-41 -16.5q-26 0 -42 17.5t-16 40.5q0 26 19 41.5t40 15.5zM465 98q29 0 43 -18t14 -39q1 -19 -13.5 -38.5t-44.5 -19.5q-22 0 -39.5 16t-17.5 40q0 9 3.5 19.5t10.5 19.5t18 14.5t26 5.5zM799 98q23 0 40.5 -15.5
t16.5 -41.5q0 -17 -6 -28t-15 -17.5t-19 -9.5t-18 -3q-9 0 -19 3.5t-18.5 10.5t-14 17.5t-5.5 24.5q0 20 14.5 39.5t43.5 19.5z" />
    <glyph glyph-name="dagger" unicode="&#x2020;" 
 />
    <glyph glyph-name="circumflex" unicode="&#x2c6;" horiz-adv-x="323" 
d="M101 624h91l-135 -102h-53zM219 624l101 -102h-55l-136 102h90z" />
    <glyph glyph-name="perthousand" unicode="&#x2030;" horiz-adv-x="1221" 
d="M231 332q11 24 16 57t6 64q1 84 -21.5 133.5t-77.5 49.5q-33 0 -53 -17t-30.5 -44t-14 -59.5t-3.5 -62.5q0 -35 4.5 -66.5t16 -55.5t31 -38.5t49.5 -14.5q28 0 47 14t30 40zM752 97q11 24 16 56.5t6 63.5q1 84 -21.5 133.5t-77.5 49.5q-33 0 -53 -17t-30.5 -44t-14 -59
t-3.5 -62q0 -35 4.5 -66.5t16 -55.5t31 -38.5t49.5 -14.5q28 0 47 14t30 40zM1148 97q11 24 16 56.5t6 63.5q1 84 -21.5 133.5t-77.5 49.5q-33 0 -53 -17t-30.5 -44t-14 -59t-3.5 -62q0 -35 4.5 -66.5t16 -55.5t31 -38.5t49.5 -14.5q28 0 47 14t30 40zM155 699
q61 0 95.5 -28t52 -67t21.5 -81t4 -70q0 -14 -2 -37t-7.5 -49.5t-17 -53.5t-31 -49t-49 -35.5t-70.5 -13.5q-51 0 -85 21.5t-53.5 56t-27.5 77.5t-8 86q0 31 5.5 73t24 79.5t54 64t94.5 26.5zM576 690l14 -16l-30.5 -67l-22.5 -51.5l-19 -45.5l-20 -49l-99 -241l-43.5 -105
l-23.5 -59l-12 -31.5t-8 -23.5l-16 -11q-17 0 -24.5 -0.5t-24.5 -1.5l-12 18l22 48.5l21.5 49.5l25.5 61l35 84l102 245l21 52l21 52q11 25 17 40.5t14 39.5l16 11h23q8 0 23 1zM676 463q61 0 95.5 -28t52 -67t21.5 -81t4 -70q0 -14 -2 -37t-8 -49.5t-17 -53.5t-31 -48.5
t-49 -35t-70 -13.5q-51 0 -84.5 21t-53.5 55t-28 77t-8 87q0 31 5.5 73t24 79.5t54 64t94.5 26.5zM1072 463q61 0 95.5 -28t52 -67t21.5 -81t4 -70q0 -14 -2 -37t-8 -49.5t-17 -53.5t-31 -48.5t-49 -35t-70 -13.5q-51 0 -84.5 21t-53.5 55t-28 77t-8 87q0 31 5.5 73t24 79.5
t54 64t94.5 26.5z" />
    <glyph glyph-name="OE" unicode="&#x152;" horiz-adv-x="1011" 
d="M348 55q51 0 97 20t80.5 55t54.5 81.5t20 99.5t-19.5 99.5t-53 81t-79 54.5t-96.5 20t-97 -20t-81 -54.5t-56 -81t-21 -99.5t20 -99.5t54.5 -81.5t80 -55.5t96.5 -20.5v1zM1011 67v-79h-406v90q-48 -52 -114 -82t-144 -30q-73 0 -136.5 27t-110 74t-73.5 109.5t-27 133.5
t27 133.5t74 109.5t110 74t136 27q78 0 144 -30.5t114 -82.5v83h387v-79h-299v-183h280v-79h-279q0 -2 -0.5 -5t-0.5 -6v-206z" />
    <glyph glyph-name="quoteleft" unicode="&#x2018;" horiz-adv-x="173" 
d="M103 624h64l-76 -161h-88z" />
    <glyph glyph-name="quoteright" unicode="&#x2019;" horiz-adv-x="173" 
d="M83 624h87l-99 -161h-66z" />
    <glyph glyph-name="quotedblleft" unicode="&#x201c;" horiz-adv-x="301" 
d="M97 624h64l-77 -161h-87zM238 624h64l-78 -161h-86z" />
    <glyph glyph-name="quotedblright" unicode="&#x201d;" horiz-adv-x="301" 
d="M77 624h86l-99 -161h-65zM217 624h87l-100 -161h-64z" />
    <glyph glyph-name="bullet" unicode="&#x2022;" horiz-adv-x="213" 
d="M123 371q32 -1 54.5 -24.5t22.5 -56.5q0 -38 -24 -59.5t-58 -20.5q-33 1 -55 24.5t-22 55.5q0 34 24 58t58 23z" />
    <glyph glyph-name="endash" unicode="&#x2013;" horiz-adv-x="341" 
d="M329 273v-73h-317v73h317z" />
    <glyph glyph-name="emdash" unicode="&#x2014;" horiz-adv-x="484" 
d="M481 273v-73h-478v73h478z" />
    <glyph glyph-name="tilde" unicode="&#x2dc;" 
 />
    <glyph glyph-name="trademark" unicode="&#x2122;" horiz-adv-x="639" 
d="M294 717v-64h-106v-290h-69v290h-109v64h284zM560 577l-67 -214h-59l-67 212v-212h-67v354h86l79 -247l77 247h86v-354h-68v214z" />
    <glyph glyph-name="oe" unicode="&#x153;" horiz-adv-x="795" 
d="M230 66q25 0 48.5 9.5t42 26t31 39t15.5 48.5q-1 6 -1 12v13v14q-4 25 -16.5 47t-30.5 38t-41 25.5t-48 9.5q-27 0 -52 -11t-43.5 -30.5t-30 -45.5t-11.5 -55t11 -55t30 -45t44 -30t52 -11v1zM468 272h242q-42 90 -119 90q-39 0 -70 -21.5t-53 -69.5v1zM460 200v-6
q11 -67 49 -102t95 -35q24 0 44.5 4.5t41 13.5t41 22t43.5 31l20 -87q-41 -29 -93.5 -47.5t-100.5 -18.5q-63 0 -111.5 23.5t-78.5 65.5q-32 -39 -78 -62.5t-103 -23.5q-49 0 -91 18t-73 49t-48.5 72t-17.5 88q0 46 17.5 87.5t48.5 73t73 49.5t91 18q54 0 100 -22t77 -60
q30 42 78 65.5t110 23.5q51 0 90 -19t65.5 -51.5t41 -76t17.5 -93.5h-348z" />
    <glyph glyph-name="Ydieresis" unicode="&#x178;" 
 />
    <glyph glyph-name="exclamdown" unicode="&#xa1;" horiz-adv-x="233" 
d="M153 566q0 -27 1 -70t2 -95t3 -108.5l4 -110.5t4 -101t4 -80l-11 -13h-22h-17t-18.5 -0.5t-26.5 -1.5l-9 15q0 13 0.5 23t1.5 21l2.5 65t2.5 80l2 84.5t1.5 79t1 63.5t0.5 37q0 38 -0.5 64t-1.5 46l11 13q15 0 25 1t27 3zM172 709q0 -10 0.5 -20t1.5 -24l-13 -15h-24
q-9 0 -18 -0.5t-19 -1.5t-26 -2l-16 13q1 15 1.5 25t0.5 19v19q0 11 -1 27l13 14h22q10 0 19 0.5t20 1.5t26 2l15 -15q-1 -14 -1.5 -23.5t-0.5 -19.5z" />
    <glyph glyph-name="cent" unicode="&#xa2;" horiz-adv-x="405" 
d="M112 296q0 -87 96 -134v273q-50 -26 -73 -62t-23 -77zM281 154q29 5 54 17.5t60 41.5q-5 -20 -8 -39.5t-4.5 -35t-1.5 -26.5v-13q-22 -15 -45.5 -22.5t-54.5 -10.5v-64h-73v67q-45 9 -80 30t-59.5 51t-37.5 67.5t-13 79.5q0 44 12 82.5t36 68t59.5 49t82.5 26.5v73h73
v-72q59 -6 100 -23v-97q-28 17 -50.5 25.5t-49.5 13.5v-289z" />
    <glyph glyph-name="sterling" unicode="&#xa3;" horiz-adv-x="622" 
d="M188 60h387l-36 -71h-463q1 6 8 32l15.5 58t15.5 63.5t9 47.5q1 13 1.5 27t2.5 37h-80l31 65h53q3 32 6 57.5t7 48.5q6 40 17 77.5t31 66.5t51.5 47t79.5 18q18 0 40.5 -6.5t42.5 -15t33.5 -15l13.5 -6.5l-27 -59q-4 2 -16.5 7.5t-28 11.5t-31 11t-25.5 5
q-34 0 -53.5 -30t-29.5 -69q-10 -37 -12.5 -74.5t-5.5 -75.5h178l-29 -65h-154q-3 -50 -8.5 -95t-23.5 -99v1z" />
    <glyph glyph-name="currency" unicode="&#xa4;" horiz-adv-x="624" 
d="M609 125l42 -85q-24 -15 -57.5 -29.5t-69.5 -26t-71 -19t-62 -7.5q-60 0 -114 18.5t-97.5 51.5t-74.5 78t-47 98h-84l14 69h57q-1 8 -1.5 15t-0.5 15q0 14 1 26.5t3 25.5h-73l14 69h77q18 48 50 89t74.5 70.5t93.5 46t108 16.5q31 0 65.5 -4.5t68.5 -13.5t65.5 -23
t56.5 -34l-38 -89q-52 42 -107 59.5t-107 17.5q-70 0 -130.5 -37t-94.5 -98h423l-14 -69h-434q-6 -26 -6 -52q0 -8 0.5 -15t1.5 -15h452l-14 -69h-420q15 -35 38.5 -64t54 -50t66 -32.5t73.5 -11.5q59 0 110 20.5t108 58.5z" />
    <glyph glyph-name="yen" unicode="&#xa5;" horiz-adv-x="445" 
d="M463 688l12 -17q-4 -7 -11.5 -21.5l-16 -30l-16 -29t-10.5 -18.5q-3 -6 -11.5 -21l-17.5 -32l-17.5 -32.5t-11.5 -21.5l-44 -83h44q15 0 23.5 0.5t23.5 2.5l15 -15q-3 -20 -4 -29t-3 -23l-13 -10h-16h-23q-14 0 -34.5 0.5t-51.5 0.5l-19 -34v-32h48h42q17 0 29 0.5
t30 1.5l15 -13q-3 -20 -4 -29.5t-3 -21.5l-12 -12q-16 1 -28 1h-34h-24h-18q-8 0 -17 0.5t-23 0.5q0 -23 0.5 -40.5l1 -35.5t1 -40t1.5 -53l-12 -13h-19h-15q-6 0 -13.5 -0.5t-17.5 -1.5l-15 12q1 17 1.5 29t0.5 28v43v72h-38h-39h-28q-13 0 -36 -1l-13 16q1 9 1.5 14.5
t1.5 10t1.5 9t2.5 12.5l13 13q11 0 49.5 -0.5t84.5 -1.5v16q0 6 -1 12l-19 38h-65h-28q-10 0 -28 -1l-13 16q1 9 1.5 15t1.5 10.5t1.5 9t2.5 11.5l13 13q12 0 33 -0.5t44 -0.5l-42 81l-25 50.5l-25 49.5q-3 5 -10.5 19l-16.5 30.5l-17 32l-12 23.5l11 18q12 0 20.5 0.5t16 1
t15 1.5t19.5 2l15 -10q4 -10 8.5 -19t10.5 -23t16 -35.5l27 -55.5l94 -193l49 96l36.5 71l32.5 65.5t26 55l17 38.5l15 7h17h13h14h19z" />
    <glyph glyph-name="brokenbar" unicode="&#xa6;" horiz-adv-x="919" 
d="M346 532l-51 -52l3 -297l-32 -32l-32 32v257q0 22 9.5 39.5t25.5 29t35.5 17.5t40.5 6h1zM447 332l-76 -76l-2 274q35 -7 56.5 -30t21.5 -60v-108zM530 414v26q0 23 9 40.5t24.5 29t35 17t40.5 5.5h9zM341 78l425 -25l79 79l-473 18l-1 58l76 76v-118h83v200l158 158
q26 -10 40.5 -35t20.5 -59t6 -73q0 -38 -2.5 -74.5t-5.5 -67.5t-3 -49h83v304q0 39 -18 71t-53 51l40 39l-24 24l-50 -50q-63 19 -124.5 2.5t-109.5 -60.5q-25 29 -58.5 48.5t-72.5 19.5q-35 0 -65 -13.5t-58 -32.5v27h-83v-330l-35 35l-57 -57l150 -150l-46 -45
q-29 8 -53 -6t-24 -47l4 -20l-44 -44l24 -24l41 41q15 -6 31 -7t29 4.5t21 17.5t8 32q0 5 -4 15.5t-6 16.5l43 42l275 -275l58 58z" />
    <glyph glyph-name="section" unicode="&#xa7;" horiz-adv-x="575" 
d="M213 62q38 0 64.5 21.5t54.5 57.5l-131 150q-42 -23 -67.5 -52t-25.5 -72q0 -24 8.5 -43.5t23 -33.5t33.5 -21.5t40 -7.5v1zM224 396q32 18 55 40t23 55q0 12 -5 25t-13.5 23.5t-19.5 17.5t-23 7q-11 0 -25 -3t-27 -10.5t-22 -19t-9 -28.5q0 -9 5 -26.5t11 -24.5z
M441 148l138 -159h-112l-73 82q-38 -42 -79.5 -68t-90.5 -26q-44 0 -83.5 13.5t-68.5 38t-46 60t-17 79.5q0 61 35.5 106.5t98.5 80.5l-26 29.5t-25.5 34t-19.5 36t-8 37.5q0 36 14.5 63.5t38.5 46.5t56 29t68 10q33 0 61 -11.5t49 -31.5t33 -47t12 -58q0 -46 -27 -86
t-67 -63l-22 -13l103 -116l17 37t15 29q7 14 14 25.5t15 22.5h94q-18 -29 -27 -47t-19 -34l-24.5 -47z" />
    <glyph glyph-name="dieresis" unicode="&#xa8;" horiz-adv-x="214" 
d="M29 575q18 -1 29 -14t11 -30q0 -18 -12.5 -31t-30.5 -12q-18 0 -29.5 13t-11.5 30q0 18 12.5 31.5t31.5 12.5zM189 575q18 -1 29 -14t11 -30q0 -18 -12.5 -31t-30.5 -12q-18 0 -29.5 13t-11.5 30q0 18 12.5 31.5t31.5 12.5z" />
    <glyph glyph-name="copyright" unicode="&#xa9;" horiz-adv-x="775" 
d="M537 268l59 -50l-11.5 -13t-6.5 -8q-26 -30 -60 -51q-21 -12 -52.5 -23t-73.5 -11q-46 0 -89.5 16.5t-77 48t-53.5 76.5t-20 101q0 50 18 94t50.5 77t77 52.5t97.5 19.5q101 0 171 -72l14.5 -15t15.5 -18l-59 -53l-16 18t-12 13q-23 23 -50.5 36t-62.5 13
q-34 0 -64 -12.5t-52 -34t-35 -51.5t-13 -65q0 -38 13.5 -68.5t36.5 -52.5t52.5 -33.5t61.5 -11.5q35 0 63.5 13.5t52.5 36.5l10.5 12zM388 40q62 0 118.5 22.5t99 64t68.5 98.5t26 126q1 63 -22 120.5t-64.5 100.5t-99 68.5t-126.5 25.5q-65 0 -122.5 -24.5t-100 -67
t-67 -100t-24.5 -123.5q0 -63 24 -119.5t66 -99t99.5 -67.5t124.5 -25zM388 720q76 0 143 -28t116.5 -77.5t78 -117t28.5 -146.5q0 -55 -16 -107t-42 -94q-22 -35 -54 -64.5t-72 -52t-86.5 -35t-97.5 -12.5q-71 0 -137 26.5t-117 75t-81.5 116t-30.5 148.5q0 78 28.5 145
t78.5 116.5t117 78t144 28.5z" />
    <glyph glyph-name="ordfeminine" unicode="&#xaa;" 
 />
    <glyph glyph-name="guillemotleft" unicode="&#xab;" horiz-adv-x="329" 
d="M81 273q13 -27 30.5 -58l34 -58.5l29 -47t15.5 -24.5l-11 -21h-16q-9 0 -19 -0.5t-19 -0.5h-13l-16 8l-21 43t-28 54l9 -6l-10 15.5l-21.5 34l-21 34l-9.5 15.5v18q4 5 5.5 9.5t3.5 7.5l12.5 23l20 39l25 50.5l26.5 56.5l15 10h69l10 -19q-3 -6 -10 -18l-14 -24.5
l-13.5 -24t-8.5 -15.5l-7.5 -14.5l-9 -17l-14.5 -26.5zM229 273l29.5 -56.5l32.5 -57.5l28.5 -47t17.5 -27l-11 -21h-16q-9 0 -19 -0.5t-20 -0.5h-13l-14 8l-26 50t-25 47q-2 3 -9.5 17t-17.5 31l-17.5 32.5t-7.5 15.5v15q7 10 10 17l12.5 23t19.5 39l24.5 50.5t26.5 57.5
l16 9h67l12 -17l-52 -96z" />
    <glyph glyph-name="logicalnot" unicode="&#xac;" horiz-adv-x="620" 
d="M655 332v-343h-82v262h-607v81h689z" />
    <glyph glyph-name="registered" unicode="&#xae;" horiz-adv-x="775" 
d="M442 410q14 5 24 16.5t10 34.5q0 26 -17 41q-12 10 -29.5 12t-58.5 2h-50v-114h64q14 0 28.5 1t28.5 7zM548 190q4 -14 9 -28.5t19 -40.5h-100q-11 21 -15 37.5t-7 32.5q-1 4 -2.5 14l-3 21l-3 21.5t-2.5 14.5q-4 22 -12 35t-20 20t-29.5 9t-40.5 2h-21v-207h-87v467h148
h35t27 -1q25 -1 46 -10q38 -14 56.5 -45t18.5 -66q0 -43 -23 -70.5t-56 -39.5q23 -15 34 -37t17 -56q4 -24 6.5 -41.5t5.5 -31.5zM387 40q66 0 123.5 24.5t99.5 66.5t66.5 99t24.5 122q0 64 -23.5 121.5t-65 100t-99 67.5t-124.5 25t-124.5 -24.5t-100 -67.5t-66.5 -100
t-24 -121q0 -66 24.5 -123t67.5 -99.5t99.5 -66.5t121.5 -24zM387 720q79 0 147 -29.5t117 -79.5t76.5 -117.5t27.5 -142.5q0 -76 -28.5 -142.5t-78 -116t-117 -78t-145.5 -28.5q-72 0 -138 26.5t-116.5 75t-81 116t-30.5 149.5q0 79 29.5 146.5t79.5 116.5t117 76.5
t141 27.5z" />
    <glyph glyph-name="macron" unicode="&#xaf;" 
 />
    <glyph glyph-name="plusminus" unicode="&#xb1;" 
 />
    <glyph glyph-name="acute" unicode="&#xb4;" horiz-adv-x="272" 
d="M219 735l10 -20l-33 -42.5t-23.5 -33t-21 -33l-25.5 -42.5l-13 -8q-9 1 -15.5 1.5t-12.5 0.5t-13.5 -0.5t-17.5 -0.5l-11 18l35.5 80.5t29.5 70.5l12 9q18 -1 28 -1h21h22t28 1z" />
    <glyph glyph-name="mu" unicode="&#xb5;" 
 />
    <glyph glyph-name="paragraph" unicode="&#xb6;" horiz-adv-x="620" 
d="M542 717v-66h-34v-829h-68v829h-135v-829h-68v499q-23 4 -52 14.5t-57 40.5q-26 28 -38 63.5t-12 72.5q0 34 10 66.5t32 60.5t47 43.5t50 23t49 9.5t43 2h233z" />
    <glyph glyph-name="periodcentered" unicode="&#xb7;" horiz-adv-x="214" 
d="M152 338q0 -2 -1.5 -2.5l-1.5 -0.5h1q2 0 2 -2q3 5 6.5 3t5.5 -3q-2 -4 -4 -7t-3.5 -6l-3.5 -7q-9 -16 -21.5 -30t-26.5 -13q-27 0 -44.5 19.5t-17.5 45.5q0 27 19 47t47 19q14 -1 26 -15t20 -30l6 -12q2 -3 4 -7q-2 -1 -6 -2.5t-7 3.5z" />
    <glyph glyph-name="periodcentered" unicode="&#x2219;" horiz-adv-x="214" 
d="M152 338q0 -2 -1.5 -2.5l-1.5 -0.5h1q2 0 2 -2q3 5 6.5 3t5.5 -3q-2 -4 -4 -7t-3.5 -6l-3.5 -7q-9 -16 -21.5 -30t-26.5 -13q-27 0 -44.5 19.5t-17.5 45.5q0 27 19 47t47 19q14 -1 26 -15t20 -30l6 -12q2 -3 4 -7q-2 -1 -6 -2.5t-7 3.5z" />
    <glyph glyph-name="cedilla" unicode="&#xb8;" 
 />
    <glyph glyph-name="ordmasculine" unicode="&#xba;" 
 />
    <glyph glyph-name="guillemotright" unicode="&#xbb;" horiz-adv-x="329" 
d="M188 278v-18q-7 -9 -11 -18l-11.5 -22.5l-20 -39l-25 -50t-26.5 -57.5l-15 -9h-36t-32 -1l-10 19q3 6 10 18l14 24.5l13 24t9 16.5q4 7 7 13l8.5 16.5l14 27l23.5 44.5l-29.5 56.5l-32.5 57.5l-29 47.5t-17 27.5l12 19h14q10 0 20 0.5t19 0.5h13l16 -8q17 -36 30.5 -61
t18.5 -35l-2 3l9 -15l19 -33l18.5 -33zM280 374l9 -15.5l19.5 -33.5l19 -33l8.5 -15l-2 -17q-3 -6 -4.5 -9.5l-3.5 -8.5q-4 -6 -13 -22.5l-20.5 -39l-25 -50l-26.5 -56.5l-14 -10h-37q-13 0 -32 -1l-10 19q3 6 10 18l14 24.5l13 24t9 16.5l7.5 14.5l9 17l14 26.5l22.5 43
q-13 27 -30.5 58l-33.5 58l-28.5 47t-15.5 26l12 19h15q10 0 19.5 0.5t18.5 0.5h13l16 -8l20.5 -42t28.5 -54z" />
    <glyph glyph-name="questiondown" unicode="&#xbf;" horiz-adv-x="349" 
d="M337 113l21 -12q-1 -11 -1.5 -18.5t-0.5 -13.5t-0.5 -12t-0.5 -14l-9 -16l-33 -15.5t-34 -12.5q-19 -6 -40 -10t-47 -4q-48 0 -85.5 15t-63 41t-39 60.5t-13.5 73.5q0 29 6.5 54.5t17.5 49.5q11 23 24 45t27 43l19 30q15 24 26 43.5t17.5 38.5t9 40t1.5 49l12 16h28
q11 0 27 2l16 -13q0 -38 -2.5 -65t-9.5 -50.5t-19 -46t-30 -49.5l-18 -27l-21 -33t-20 -38t-15 -41.5t-6 -43.5q0 -52 34 -85t87 -33q30 0 57.5 9.5t52.5 25.5l11.5 8t13.5 9zM232 719q0 -11 0.5 -21t0.5 -23l-13 -15q-14 0 -23 -0.5l-18 -1t-19.5 -1t-26.5 -1.5l-14 14
q0 14 0.5 24t0.5 19t-0.5 19.5t-1.5 27.5l15 13h22q10 0 19 0.5t19.5 1t25.5 1.5l14 -13q0 -14 -0.5 -24t-0.5 -20z" />
    <glyph glyph-name="Agrave" unicode="&#xc0;" 
 />
    <glyph glyph-name="Aacute" unicode="&#xc1;" horiz-adv-x="485" 
d="M435 62v-74h-386l224 355q20 31 31 66t11 61q0 21 -8.5 36.5t-22 26t-30 16t-32.5 5.5q-43 0 -85 -24.5t-87 -72.5v116q38 28 82.5 47t89.5 19q88 0 138.5 -46t50.5 -132q0 -19 -6 -50t-20 -54l-185 -296z" />
    <glyph glyph-name="Acircumflex" unicode="&#xc2;" horiz-adv-x="469" 
d="M236 55q23 0 41 13.5t31 35.5t22 50t14.5 56t8 53.5t2.5 43.5q0 27 -6 69t-20 82.5t-36.5 69.5t-56.5 29q-21 0 -39 -16t-32 -39.5t-24 -51t-14 -49.5q-9 -47 -9 -94q0 -27 5.5 -70t19 -83.5t36 -70t57.5 -29.5v1zM234 632q59 0 98.5 -33t63.5 -82t34.5 -106t10.5 -104
t-10.5 -104t-34.5 -107t-64 -84t-98 -34t-97.5 34t-63.5 84.5t-34.5 107.5t-10.5 103t10.5 103t34.5 106t63.5 82.5t97.5 33.5z" />
    <glyph glyph-name="Atilde" unicode="&#xc3;" 
 />
    <glyph glyph-name="Adieresis" unicode="&#xc4;" horiz-adv-x="661" 
d="M251 775q18 -1 29 -14t11 -30q0 -18 -12.5 -31t-31.5 -12q-18 0 -29 13t-11 30q0 18 12.5 32t31.5 12zM417 775q18 0 29.5 -13.5t11.5 -30.5q0 -21 -13.5 -32.5t-31.5 -10.5q-17 1 -28.5 13.5t-11.5 29.5q0 18 12.5 31.5t31.5 12.5zM188 230h234l-116 293zM362 624
l252 -636h-97l-64 164h-296l-65 -164h-94l258 636h106z" />
    <glyph glyph-name="Aring" unicode="&#xc5;" 
 />
    <glyph glyph-name="AE" unicode="&#xc6;" horiz-adv-x="868" 
d="M249 231h232l-1 290zM897 66v-78h-332h-63h-20v164h-296l-129 -164h-98l508 636h35h61h315v-79h-299v-183h280v-79h-280v-217h318z" />
    <glyph glyph-name="Ccedilla" unicode="&#xc7;" 
 />
    <glyph glyph-name="Egrave" unicode="&#xc8;" horiz-adv-x="538" 
d="M158 247h136v172zM534 246v-79h-150v-179h-88v180h-303l416 510q-6 -22 -10 -58.5t-7 -79.5t-4.5 -89t-2.5 -86.5t-1 -72.5v-46h150z" />
    <glyph glyph-name="Eacute" unicode="&#xc9;" 
 />
    <glyph glyph-name="Ecircumflex" unicode="&#xca;" horiz-adv-x="222" 
d="M155 625l1 -636h-89l-1 636h89z" />
    <glyph glyph-name="Edieresis" unicode="&#xcb;" horiz-adv-x="484" 
d="M260 372q33 -10 66 -24t58.5 -33t41.5 -43.5t16 -54.5q0 -42 -16.5 -84.5t-45.5 -76t-68.5 -54.5t-84.5 -21q-18 0 -33.5 3t-30.5 8q-16 6 -34.5 16t-36 23.5t-31.5 29.5t-21 34l69 75q15 -48 47 -76t80 -28q19 0 38.5 14t35.5 35.5t25.5 48t9.5 51.5q0 22 -19 39t-50 30
t-70.5 20.5t-79.5 10.5l180 232h-257v76h403z" />
    <glyph glyph-name="Igrave" unicode="&#xcc;" horiz-adv-x="437" 
d="M216 54q20 0 40 9.5t35.5 25.5t25.5 36.5t10 42.5q0 18 -10.5 35.5t-27 33.5t-37 30.5t-41.5 27.5q-19 -13 -36.5 -27.5t-31.5 -31.5t-22.5 -36.5t-8.5 -41.5q0 -21 9 -40.5t24 -33.5t33.5 -22.5t37.5 -8.5v1zM221 380q31 21 53.5 51t22.5 62t-24 49.5t-54 17.5
q-15 0 -29.5 -3t-26 -9.5t-18.5 -18t-7 -28.5q0 -36 24 -67t59 -54zM291 339q58 -37 89 -76.5t31 -95.5q0 -38 -15 -72.5t-41.5 -60.5t-61.5 -42t-74 -16q-87 0 -140 46.5t-53 130.5q0 57 29.5 102.5t86.5 85.5q-42 36 -65 74.5t-23 80.5q0 33 13.5 59t36 44t52.5 27t64 9
t63 -9.5t50.5 -28t33.5 -44.5t12 -59q0 -84 -88 -155z" />
    <glyph glyph-name="Iacute" unicode="&#xcd;" horiz-adv-x="444" 
d="M170 401q53 -2 96.5 -17.5t75 -43t49 -65.5t17.5 -86q0 -46 -16.5 -84.5t-46 -66.5t-69.5 -43.5t-87 -15.5q-48 0 -87 24t-70 63l53 68q52 -74 114 -74q24 0 44.5 10.5t36.5 28t25 40.5t9 48q0 31 -13.5 56.5t-35 42.5t-48.5 26.5t-53 9.5q-19 0 -40.5 -4.5t-56.5 -13.5
l40 320h295l-36 -76h-180z" />
    <glyph glyph-name="Icircumflex" unicode="&#xce;" horiz-adv-x="485" 
d="M254 58q22 0 42 9t35 25t23.5 37t8.5 45q0 23 -8.5 45t-23.5 39t-35 27t-42 10q-29 0 -64 -11t-57 -39q-6 -8 -9 -27.5t-3 -33.5q0 -29 11.5 -52.5t30 -40t42.5 -25.5t49 -9v1zM262 375q42 0 77 -15.5t60.5 -42.5t40 -62t14.5 -74q0 -43 -16 -80t-44.5 -64.5t-66.5 -43
t-83 -15.5q-53 0 -93 20.5t-67 54t-40.5 77.5t-13.5 92q0 54 15.5 111.5t43.5 111.5t66.5 101t85.5 81l58 -43q-32 -24 -55.5 -50t-42 -55.5t-34.5 -63.5t-32 -76q42 21 69 28.5t58 7.5z" />
    <glyph glyph-name="Idieresis" unicode="&#xcf;" horiz-adv-x="482" 
d="M43 624h419l-347 -636h-95l299 556h-276v80z" />
    <glyph glyph-name="Ntilde" unicode="&#xd1;" 
 />
    <glyph glyph-name="Ograve" unicode="&#xd2;" horiz-adv-x="738" 
d="M370 55q51 0 96.5 20t80 55t55 81.5t20.5 99.5t-19.5 99.5t-53.5 81t-79 54.5t-96 20t-97 -20t-81.5 -54.5t-56 -81t-20.5 -99.5t20 -99.5t54.5 -81.5t80 -55.5t96.5 -20.5v1zM369 654q73 0 136.5 -27.5t110.5 -74.5t74 -109.5t27 -133.5t-27 -133.5t-74 -109
t-110.5 -73.5t-136.5 -27t-136.5 27t-110 74t-73.5 109.5t-27 133.5t27 133.5t74 109.5t110 74t136 27z" />
    <glyph glyph-name="Oacute" unicode="&#xd3;" horiz-adv-x="475" 
d="M223 318q22 0 39.5 3.5t33.5 11t32 19t35 28.5q-1 30 -8.5 61.5t-22 57.5t-37.5 42.5t-55 16.5q-22 0 -44.5 -8t-40.5 -23t-29.5 -36t-11.5 -48q0 -24 8.5 -46.5t23 -40t34.5 -28.5t43 -11v1zM247 637q51 0 89 -23t63 -59.5t37 -82t12 -89.5q0 -58 -23 -119.5t-60.5 -119
t-85 -107.5t-96.5 -85l-53 48q66 54 122 120.5t87 156.5q-38 -18 -65.5 -27.5t-50.5 -9.5q-42 0 -77.5 15t-61.5 41.5t-41 61.5t-15 75q0 43 17.5 80.5t47.5 65t69.5 43t84.5 15.5z" />
    <glyph glyph-name="Ocircumflex" unicode="&#xd4;" horiz-adv-x="469" 
d="M236 55q23 0 41 13.5t31 35.5t22 50t14.5 56t8 53.5t2.5 43.5q0 27 -6 69t-20 82.5t-36.5 69.5t-56.5 29q-21 0 -39 -16t-32 -39.5t-24 -51t-14 -49.5q-9 -47 -9 -94q0 -27 5.5 -70t19 -83.5t36 -70t57.5 -29.5v1zM234 632q59 0 98.5 -33t63.5 -82t34.5 -106t10.5 -104
t-10.5 -104t-34.5 -107t-64 -84t-98 -34t-97.5 34t-63.5 84.5t-34.5 107.5t-10.5 103t10.5 103t34.5 106t63.5 82.5t97.5 33.5z" />
    <glyph glyph-name="Otilde" unicode="&#xd5;" 
 />
    <glyph glyph-name="Odieresis" unicode="&#xd6;" horiz-adv-x="738" 
d="M298 775q18 -1 29 -14t11 -30q0 -18 -12.5 -31t-31.5 -12q-18 0 -29 13t-11 30q0 18 12.5 31.5t31.5 12.5zM464 775q19 0 30 -13.5t11 -30.5q0 -21 -13.5 -33t-31.5 -10q-17 1 -28.5 13.5t-11.5 29.5q0 18 12.5 31.5t31.5 12.5zM342 54q51 0 97 20.5t80.5 55.5t54.5 81.5
t20 99.5t-19.5 99.5t-53 81t-79 54.5t-96.5 20t-97 -20t-81.5 -54.5t-56 -81t-20.5 -99.5t20 -99.5t54.5 -81.5t80 -55.5t96.5 -20.5zM341 654q73 0 136.5 -27.5t110.5 -74.5t74 -109.5t27 -133.5t-27 -133.5t-74 -109t-110.5 -73.5t-136.5 -27t-136.5 27t-110 74
t-73.5 109.5t-27 133.5t27 133.5t74 109.5t110 74t136 27z" />
    <glyph glyph-name="Oslash" unicode="&#xd8;" horiz-adv-x="738" 
d="M177 169l324 369q-51 28 -111 28q-51 0 -97.5 -20t-81.5 -54.5t-56 -81t-21 -99.5q0 -39 11.5 -75t31.5 -67zM386 54q51 0 96.5 20.5t80 55.5t54.5 81.5t20 99.5q0 54 -19.5 100t-54.5 81l-334 -380q32 -27 72 -42.5t85 -15.5zM623 560q51 -48 80 -112t29 -139
q0 -71 -27 -133.5t-73.5 -109t-110 -73.5t-136.5 -27q-63 0 -118 20.5t-100 55.5l-108 -123l-57 51l110 126q-35 45 -55 99t-20 115q0 71 27 133.5t74 109.5t110.5 74t136.5 27q49 0 93.5 -12.5t82.5 -35.5l97 111l58 -51z" />
    <glyph glyph-name="Ugrave" unicode="&#xd9;" 
 />
    <glyph glyph-name="Uacute" unicode="&#xda;" 
 />
    <glyph glyph-name="Ucircumflex" unicode="&#xdb;" 
 />
    <glyph glyph-name="Udieresis" unicode="&#xdc;" horiz-adv-x="628" 
d="M243 775q17 -1 28 -14t11 -30q0 -18 -12.5 -31t-30.5 -12q-18 0 -29.5 13t-11.5 30q0 18 12.5 32t32.5 12zM408 775q19 0 30 -13.5t11 -30.5q0 -21 -13.5 -32.5t-31.5 -10.5q-17 1 -28 13.5t-11 29.5q0 18 12 31.5t31 12.5zM578 623v-367q0 -66 -21.5 -119t-61 -90.5
t-95 -57.5t-122.5 -20q-65 0 -116.5 22t-86.5 60t-53.5 90.5t-18.5 114.5v368h88v-306q0 -47 8.5 -94t30.5 -84.5t58.5 -61t92.5 -23.5q60 0 100 21t64.5 57t34.5 84t10 101v103v203z" />
    <glyph glyph-name="germandbls" unicode="&#xdf;" horiz-adv-x="422" 
d="M279 168q34 -12 59.5 -33t42 -47.5t24.5 -56t8 -58.5q0 -43 -17 -79t-46.5 -62t-68.5 -40.5t-83 -14.5q-34 0 -64 11q-16 6 -34.5 16t-36 23.5t-31.5 29.5t-21 34l69 75q15 -48 47 -76t80 -28q21 0 40.5 8t35 22.5t24.5 34.5t9 44q0 39 -12 64.5t-34 41.5t-52.5 23.5
t-67.5 10.5l131 232h-149v-355h-83v355h-59v76h59v63q0 28 6 55.5t19.5 48.5t36 34t55.5 13q32 0 64.5 -11t59.5 -28l-15 -78q-27 23 -47 33t-38 10q-32 0 -45 -23t-13 -54v-64h288z" />
    <glyph glyph-name="agrave" unicode="&#xe0;" horiz-adv-x="417" 
d="M174 46q14 0 32.5 6.5t36.5 15t33 17.5l23 14v91q-22 -3 -52 -9.5t-57.5 -17t-47 -25.5t-19.5 -36q0 -24 15.5 -40.5t35.5 -16.5v1zM382 306v-318h-83v29q-32 -16 -65.5 -29t-59.5 -13q-29 0 -54.5 10t-44 27.5t-29.5 40.5t-11 49q0 42 22 71t58 48.5t82 31t94 16.5v37
q0 13 -6.5 25t-16.5 21.5t-22.5 15.5t-25.5 6q-20 0 -40.5 -5.5t-44 -17.5t-50 -31.5t-58.5 -47.5q23 53 32 86.5l9 33.5q7 24 51.5 41t105.5 17q28 0 56.5 -9t50.5 -27t36 -45t14 -63zM198 624l118 -102h-74l-139 102h95z" />
    <glyph glyph-name="aacute" unicode="&#xe1;" horiz-adv-x="417" 
d="M174 46q14 0 32.5 6.5t36.5 15t33 17.5l23 14v91q-22 -3 -52 -9.5t-57.5 -17t-47 -25.5t-19.5 -36q0 -24 15.5 -40.5t35.5 -16.5v1zM382 306v-318h-83v29q-32 -16 -65.5 -29t-59.5 -13q-29 0 -54.5 10t-44 27.5t-29.5 40.5t-11 49q0 42 22 71t58 48.5t82 31t94 16.5v37
q0 13 -6.5 25t-16.5 21.5t-22.5 15.5t-25.5 6q-20 0 -40.5 -5.5t-44 -17.5t-50 -31.5t-58.5 -47.5q23 53 32 86.5l9 33.5q7 24 51.5 41t105.5 17q28 0 56.5 -9t50.5 -27t36 -45t14 -63zM238 624h95l-138 -102h-74z" />
    <glyph glyph-name="acircumflex" unicode="&#xe2;" horiz-adv-x="417" 
d="M174 46q14 0 32.5 6.5t36.5 15t33 17.5l23 14v91q-22 -3 -52 -9.5t-57.5 -17t-47 -25.5t-19.5 -36q0 -24 15.5 -40.5t35.5 -16.5v1zM382 306v-318h-83v29q-32 -16 -65.5 -29t-59.5 -13q-29 0 -54.5 10t-44 27.5t-29.5 40.5t-11 49q0 42 22 71t58 48.5t82 31t94 16.5v37
q0 13 -6.5 25t-16.5 21.5t-22.5 15.5t-25.5 6q-20 0 -40.5 -5.5t-44 -17.5t-50 -31.5t-58.5 -47.5q23 53 32 86.5l9 33.5q7 24 51.5 41t105.5 17q28 0 56.5 -9t50.5 -27t36 -45t14 -63zM159 624h91l-136 -102h-53zM277 624l100 -102h-55l-135 102h90z" />
    <glyph glyph-name="atilde" unicode="&#xe3;" 
 />
    <glyph glyph-name="adieresis" unicode="&#xe4;" horiz-adv-x="417" 
d="M178 46q14 0 32.5 6.5t36.5 15t33 17.5l23 14v91q-22 -3 -52 -9.5t-57.5 -17t-47 -25.5t-19.5 -36q0 -24 15.5 -40.5t35.5 -16.5v1zM386 306v-318h-83v29q-32 -16 -65.5 -29t-59.5 -13q-29 0 -54.5 10t-44 27.5t-29.5 40.5t-11 49q0 42 22 71t58 48.5t82 31t94 16.5v37
q0 13 -6.5 25t-16.5 21.5t-22.5 15.5t-25.5 6q-27 0 -54 -4t-41.5 -7.5t-16.5 -4.5l-16 68q7 4 38.5 14t94.5 10q28 0 56 -9t50.5 -27t36.5 -45t14 -63zM155 575q18 -1 28.5 -14t10.5 -30q0 -18 -12.5 -31t-30.5 -12q-18 0 -29.5 13t-11.5 30q0 18 13 31.5t32 12.5zM315 575
q18 -1 28.5 -14t10.5 -30q0 -18 -12.5 -31t-30.5 -12q-18 0 -29.5 13t-11.5 30q0 18 13 31.5t32 12.5z" />
    <glyph glyph-name="aring" unicode="&#xe5;" 
 />
    <glyph glyph-name="ae" unicode="&#xe6;" horiz-adv-x="685" 
d="M132 46q14 0 32.5 6.5t36.5 15t32.5 17.5l22.5 14v59l-2 15.5l-2 15.5q-22 -3 -51.5 -9t-56.5 -16.5t-45.5 -25.5t-18.5 -36q0 -24 16 -40.5t36 -16.5v1zM353 272h243q-42 90 -119 90q-39 0 -70.5 -21.5t-53.5 -69.5v1zM480 440q51 0 90 -19t65.5 -51.5t41 -76
t17.5 -93.5h-350q9 -70 48 -106.5t98 -36.5q47 0 84.5 18t84.5 53l21 -87q-41 -29 -93.5 -47.5t-100.5 -18.5q-45 0 -81.5 11.5t-65.5 32.5v-31h-83v29q-31 -16 -64.5 -29t-59.5 -13q-29 0 -54.5 10t-44.5 27.5t-30 40.5t-11 49q0 42 22 71t58 48.5t82 31t94 16.5v37
q0 13 -6 25t-16 21.5t-22.5 15.5t-25.5 6q-20 0 -41.5 -7t-39 -15.5t-28.5 -15.5l-11 -7l-33 66l12.5 8.5t34 19t50.5 19t61 8.5q39 0 76.5 -17t59.5 -52q29 29 70 44t91 15z" />
    <glyph glyph-name="ccedilla" unicode="&#xe7;" 
 />
    <glyph glyph-name="egrave" unicode="&#xe8;" horiz-adv-x="480" 
d="M121 272h242q-41 90 -118 90q-40 0 -71 -21.5t-53 -69.5v1zM248 440q51 0 90 -19t65.5 -51.5t41 -76t16.5 -93.5h-349q9 -70 48 -106.5t98 -36.5q23 0 44 4.5t41 13.5t41.5 23t46.5 33v-96q-40 -29 -84.5 -44.5t-92.5 -15.5q-56 0 -99.5 17.5t-73.5 49.5t-46 75.5
t-16 96.5q0 50 16 91.5t46 71.5t72.5 46.5t94.5 16.5zM234 624l117 -102h-74l-138 102h95z" />
    <glyph glyph-name="eacute" unicode="&#xe9;" horiz-adv-x="480" 
d="M121 272h242q-41 90 -118 90q-40 0 -71 -21.5t-53 -69.5v1zM248 440q51 0 90 -19t65.5 -51.5t41 -76t16.5 -93.5h-349q9 -70 48 -106.5t98 -36.5q23 0 44 4.5t41 13.5t41.5 23t46.5 33v-96q-40 -29 -84.5 -44.5t-92.5 -15.5q-56 0 -99.5 17.5t-73.5 49.5t-46 75.5
t-16 96.5q0 50 16 91.5t46 71.5t72.5 46.5t94.5 16.5zM284 624h95l-139 -102h-74z" />
    <glyph glyph-name="ecircumflex" unicode="&#xea;" horiz-adv-x="480" 
d="M121 272h242q-41 90 -118 90q-40 0 -71 -21.5t-53 -69.5v1zM248 440q51 0 90 -19t65.5 -51.5t41 -76t16.5 -93.5h-349q9 -70 48 -106.5t98 -36.5q23 0 44 4.5t41 13.5t41.5 23t46.5 33v-96q-40 -29 -84.5 -44.5t-92.5 -15.5q-56 0 -99.5 17.5t-73.5 49.5t-46 75.5
t-16 96.5q0 50 16 91.5t46 71.5t72.5 46.5t94.5 16.5zM194 624h91l-135 -102h-53zM312 624l100 -102h-55l-135 102h90z" />
    <glyph glyph-name="edieresis" unicode="&#xeb;" horiz-adv-x="480" 
d="M121 272h242q-41 90 -118 90q-40 0 -71 -21.5t-53 -69.5v1zM248 440q51 0 90 -19t65.5 -51.5t41 -76t16.5 -93.5h-349q9 -70 48 -106.5t98 -36.5q23 0 44 4.5t41 13.5t41.5 23t46.5 33v-96q-40 -29 -84.5 -44.5t-92.5 -15.5q-56 0 -99.5 17.5t-73.5 49.5t-46 75.5
t-16 96.5q0 50 16 91.5t46 71.5t72.5 46.5t94.5 16.5zM157 575q18 -1 28.5 -14t10.5 -30q0 -18 -12.5 -31t-30.5 -12q-18 0 -29.5 13t-11.5 30q0 18 12.5 32t32.5 12zM317 575q18 -1 28.5 -14t10.5 -30q0 -18 -12.5 -31t-30.5 -12q-18 0 -29.5 13t-11.5 30q0 18 12.5 32
t32.5 12z" />
    <glyph glyph-name="igrave" unicode="&#xec;" horiz-adv-x="214" 
d="M143 419v-431h-83v431h83zM94 624l117 -102h-73l-139 102h95z" />
    <glyph glyph-name="iacute" unicode="&#xed;" horiz-adv-x="214" 
d="M140 419v-431h-83v431h83zM120 624h95l-139 -102h-73z" />
    <glyph glyph-name="icircumflex" unicode="&#xee;" horiz-adv-x="214" 
d="M146 419v-431h-83v431h83zM47 624h91l-135 -102h-54zM165 624l100 -102h-55l-135 102h90z" />
    <glyph glyph-name="idieresis" unicode="&#xef;" horiz-adv-x="214" 
d="M137 419v-431h-83v431h83zM29 575q18 -1 29 -14t11 -30q0 -18 -12.5 -31t-30.5 -12q-18 0 -29.5 13t-11.5 30q0 18 12.5 31.5t31.5 12.5zM189 575q18 -1 29 -14t11 -30q0 -18 -12.5 -31t-30.5 -12q-18 0 -29.5 13t-11.5 30q0 18 12.5 31.5t31.5 12.5z" />
    <glyph glyph-name="ntilde" unicode="&#xf1;" 
 />
    <glyph glyph-name="ograve" unicode="&#xf2;" horiz-adv-x="481" 
d="M241 66q27 0 52 11t44 30t30.5 44.5t11.5 54.5t-11 55t-30 45.5t-44 30.5t-53 11q-27 0 -52 -11t-43.5 -30.5t-30 -45.5t-11.5 -55t11 -55t30 -45t44 -30t52 -11v1zM240 433q49 0 91 -18t73 -49.5t49 -73t18 -87.5q0 -47 -18 -88t-49 -72t-73 -49t-91 -18t-91 18t-73 49
t-48.5 72t-17.5 88q0 46 17.5 87.5t48.5 73t73 49.5t91 18zM225 624l118 -102h-74l-139 102h95z" />
    <glyph glyph-name="oacute" unicode="&#xf3;" horiz-adv-x="481" 
d="M241 66q27 0 52 11t44 30t30.5 44.5t11.5 54.5t-11 55t-30 45.5t-44 30.5t-53 11q-27 0 -52 -11t-43.5 -30.5t-30 -45.5t-11.5 -55t11 -55t30 -45t44 -30t52 -11v1zM240 433q49 0 91 -18t73 -49.5t49 -73t18 -87.5q0 -47 -18 -88t-49 -72t-73 -49t-91 -18t-91 18t-73 49
t-48.5 72t-17.5 88q0 46 17.5 87.5t48.5 73t73 49.5t91 18zM295 624h95l-138 -102h-74z" />
    <glyph glyph-name="ocircumflex" unicode="&#xf4;" horiz-adv-x="481" 
d="M241 66q27 0 52 11t44 30t30.5 44.5t11.5 54.5t-11 55t-30 45.5t-44 30.5t-53 11q-27 0 -52 -11t-43.5 -30.5t-30 -45.5t-11.5 -55t11 -55t30 -45t44 -30t52 -11v1zM240 433q49 0 91 -18t73 -49.5t49 -73t18 -87.5q0 -47 -18 -88t-49 -72t-73 -49t-91 -18t-91 18t-73 49
t-48.5 72t-17.5 88q0 46 17.5 87.5t48.5 73t73 49.5t91 18zM176 624h91l-135 -102h-54zM294 624l100 -102h-55l-135 102h90z" />
    <glyph glyph-name="otilde" unicode="&#xf5;" 
 />
    <glyph glyph-name="odieresis" unicode="&#xf6;" horiz-adv-x="481" 
d="M241 66q27 0 52 11t44 30t30.5 44.5t11.5 54.5t-11 55t-30 45.5t-44 30.5t-53 11q-27 0 -52 -11t-43.5 -30.5t-30 -45.5t-11.5 -55t11 -55t30 -45t44 -30t52 -11v1zM240 433q49 0 91 -18t73 -49.5t49 -73t18 -87.5q0 -47 -18 -88t-49 -72t-73 -49t-91 -18t-91 18t-73 49
t-48.5 72t-17.5 88q0 46 17.5 87.5t48.5 73t73 49.5t91 18zM168 575q18 -1 29 -14t11 -30q0 -18 -13 -31t-31 -12q-18 0 -29.5 13t-11.5 30q0 18 13 32t32 12zM328 575q18 -1 29 -14t11 -30q0 -18 -13 -31t-31 -12q-18 0 -29.5 13t-11.5 30q0 18 13 32t32 12z" />
    <glyph glyph-name="divide" unicode="&#xf7;" 
 />
    <glyph glyph-name="oslash" unicode="&#xf8;" horiz-adv-x="481" 
d="M128 127l180 202q-32 19 -67 19q-27 0 -52 -11t-43.5 -30.5t-30 -45.5t-11.5 -55q0 -44 24 -79zM241 65q27 0 52 11t44 30t30.5 45t11.5 55q0 18 -5 35.5t-13 32.5l-174 -197q13 -5 26.5 -8.5t27.5 -3.5zM433 471l58 -51l-68 -76q23 -29 35.5 -64.5t12.5 -74.5
q0 -47 -18 -88t-49 -72t-73 -49t-91 -18q-32 0 -60.5 8t-53.5 22l-78 -89l-58 51l76 86q-26 30 -41 68t-15 81q0 46 17.5 87.5t48.5 73t73 49.5t91 18q35 0 67 -10t59 -27z" />
    <glyph glyph-name="ugrave" unicode="&#xf9;" horiz-adv-x="443" 
d="M411 419v-431h-83v31q-36 -23 -66 -32.5t-59 -9.5q-39 0 -70.5 13t-54 36.5t-35 54.5t-12.5 67v271h83v-251q0 -22 7.5 -42.5t21 -36t32 -25t40.5 -9.5q21 0 41.5 9t36.5 24t25.5 35.5t9.5 44.5v251h83zM195 624l117 -102h-73l-139 102h95z" />
    <glyph glyph-name="uacute" unicode="&#xfa;" horiz-adv-x="443" 
d="M411 419v-431h-83v31q-36 -23 -66 -32.5t-59 -9.5q-39 0 -70.5 13t-54 36.5t-35 54.5t-12.5 67v271h83v-251q0 -22 7.5 -42.5t21 -36t32 -25t40.5 -9.5q21 0 41.5 9t36.5 24t25.5 35.5t9.5 44.5v251h83zM267 624h95l-140 -102h-72z" />
    <glyph glyph-name="ucircumflex" unicode="&#xfb;" horiz-adv-x="443" 
d="M411 419v-431h-83v31q-36 -23 -66 -32.5t-59 -9.5q-39 0 -70.5 13t-54 36.5t-35 54.5t-12.5 67v271h83v-251q0 -22 7.5 -42.5t21 -36t32 -25t40.5 -9.5q21 0 41.5 9t36.5 24t25.5 35.5t9.5 44.5v251h83zM160 624h91l-136 -102h-53zM279 624l99 -102h-55l-136 102h92z" />
    <glyph glyph-name="udieresis" unicode="&#xfc;" horiz-adv-x="443" 
d="M411 419v-431h-83v31q-36 -23 -66 -32.5t-59 -9.5q-39 0 -70.5 13t-54 36.5t-35 54.5t-12.5 67v271h83v-251q0 -22 7.5 -42.5t21 -36t32 -25t40.5 -9.5q21 0 41.5 9t36.5 24t25.5 35.5t9.5 44.5v251h83zM138 575q18 -1 29 -14t11 -30q0 -18 -12.5 -31t-30.5 -12
q-18 0 -29.5 13t-11.5 30q0 18 12.5 32t31.5 12zM298 575q18 -1 29 -14t11 -30q0 -18 -12.5 -31t-30.5 -12q-18 0 -29.5 13t-11.5 30q0 18 12.5 32t31.5 12z" />
    <glyph glyph-name="ydieresis" unicode="&#xff;" 
 />
    <glyph glyph-name="infinity" unicode="&#xe000;" horiz-adv-x="632" 
d="M284 190l11.5 18l10.5 18q-13 19 -27 37.5t-30.5 32.5t-35.5 22.5t-41 8.5q-21 0 -40.5 -9t-33.5 -24t-22.5 -33.5t-8.5 -37.5q0 -20 9.5 -40t25.5 -36t37 -26t43 -10q16 0 31 7.5t28 19.5t24 26t19 26zM501 140q16 0 31 7t26 18.5t17.5 26t6.5 28.5q0 13 -5 27.5t-14 26
t-22.5 19t-31.5 7.5q-36 0 -66 -24t-53 -58q21 -31 50 -54.5t61 -23.5zM504 385q33 0 58.5 -13.5t43.5 -36t27 -53t9 -63.5q0 -34 -9.5 -63.5t-27.5 -51t-44 -33.5t-59 -12q-42 0 -80 22.5t-73 64.5q-36 -57 -74 -88t-94 -31q-38 0 -72.5 15t-60.5 41.5t-42 61.5t-16 75
q0 43 12 78.5t34.5 60.5t55.5 39t75 14q57 0 101 -30t83 -87q36 44 73 67t80 23z" />
    <glyph glyph-name="integral" unicode="&#xe001;" horiz-adv-x="465" 
d="M362 420h98l-301 -633h-95l33 63.5l37.5 73.5l34.5 68.5t24 49.5l-188 378h100l135 -267z" />
    <glyph glyph-name="radical" unicode="&#xe002;" horiz-adv-x="576" 
d="M386 654q115 0 214 -73l-38 -87q-41 36 -82.5 54t-88.5 18q-74 0 -137 -43t-101 -124h369l-22 -51h-362l-1.5 -21.5t-0.5 -15.5q0 -7 0.5 -15t2.5 -22h330l-22 -51h-295q35 -81 97.5 -125t137.5 -44q45 0 85.5 16.5t82.5 49.5l37 -93q-21 -12 -47 -23t-53.5 -19.5
t-54.5 -13.5t-51 -5q-59 0 -112.5 18.5t-97.5 52.5t-76.5 81.5t-49.5 105.5h-78l24 51h45q-2 14 -2 21v14q0 7 0.5 15t2.5 24h-69l24 51h54q17 57 49.5 103.5t76 80t97 52t112.5 18.5z" />
    </font>
</defs>
</svg>
